<svg width="136" height="144" viewBox="0 0 136 144" xmlns="http://www.w3.org/2000/svg"><path d="M132.487 122.31l-29.354-31.075a61.548 61.548 0 0 0 8.87-31.945c0-32.74-25.084-59.29-56-59.29C25.068 0 0 26.55 0 59.29c0 32.74 25.07 59.298 56.002 59.298 11.106 0 21.458-3.47 30.162-9.398l29.353 31.074c2.342 2.5 5.402 3.736 8.462 3.736a11.62 11.62 0 0 0 8.5-3.73c4.692-5.06 4.692-12.9 0-17.96h.007zM15.995 59.29c0-23.343 17.952-42.35 40.007-42.35 22.047 0 40 19 40 42.35 0 23.343-17.953 42.366-40 42.366-22.062 0-40.007-19.023-40.007-42.366z" fill="#000" fill-rule="evenodd" fill-opacity=".02"/></svg>