<?xml version="1.0" encoding="UTF-8"?>
<svg width="340px" height="138px" viewBox="0 0 340 138" version="1.1" xmlns="http://www.w3.org/2000/svg" xmlns:xlink="http://www.w3.org/1999/xlink">
    <!-- Generator: Sketch 42 (36781) - http://www.bohemiancoding.com/sketch -->
    <title>34x23</title>
    <desc>Created with Sketch.</desc>
    <defs>
        <rect id="path-1" x="0" y="0" width="34" height="23"></rect>
        <mask id="mask-2" maskContentUnits="userSpaceOnUse" maskUnits="objectBoundingBox" x="0" y="0" width="34" height="23" fill="white">
            <use xlink:href="#path-1"></use>
        </mask>
        <rect id="path-3" x="0" y="0" width="34" height="23"></rect>
        <rect id="path-5" x="0" y="0" width="34" height="23"></rect>
        <rect id="path-7" x="0" y="0" width="14.6765718" height="11.3076923"></rect>
        <rect id="path-9" x="0" y="0" width="14.6765718" height="11.3076923"></rect>
    </defs>
    <g id="34x23px" stroke="none" stroke-width="1" fill="none" fill-rule="evenodd">
        <g id="34x23">
            <g id="FRA" transform="translate(34.000000, 23.000000)">
                <path d="M5.525,0 L5.525,23" id="Stroke-1" stroke="#425091" stroke-width="11.05"></path>
                <path d="M28.475,0 L28.475,23" id="Stroke-2" stroke="#DD505E" stroke-width="11.05"></path>
                <path d="M17,0 L17,23" id="Stroke-3" stroke="#FFFFFF" stroke-width="11.9"></path>
            </g>
            <g id="ISL" transform="translate(204.000000, 23.000000)">
                <path d="M0,11.5 L34,11.5" id="Stroke-1" stroke="#425091" stroke-width="22.95"></path>
                <path d="M10.5,0 L10.5,23 M0,11.5 L34,11.5" id="Stroke-2" stroke="#FFFFFF" stroke-width="9"></path>
                <path d="M10.5,0 L10.5,23 M0,11.5 L34,11.5" id="Stroke-3" stroke="#DD505E" stroke-width="5"></path>
            </g>
            <g id="NOR" transform="translate(272.000000, 46.000000)">
                <path d="M0,11.5 L34,11.5" id="Stroke-1" stroke="#DC505E" stroke-width="22.95"></path>
                <path d="M10.5,0 L10.5,23 M0,11.5 L34,11.5" id="Stroke-2" stroke="#FFFFFF" stroke-width="9"></path>
                <path d="M10.5,0 L10.5,23 M0,11.5 L34,11.5" id="Stroke-3" stroke="#425091" stroke-width="5"></path>
            </g>
            <g id="DAN" transform="translate(238.000000, 0.000000)">
                <path d="M0,11.5 L34,11.5" id="Stroke-1" stroke="#DC505E" stroke-width="23"></path>
                <path d="M10.5,0 L10.5,23 M0,11.5 L34,11.5" id="Stroke-3" stroke="#FFFFFF" stroke-width="5"></path>
            </g>
            <g id="SWE" transform="translate(272.000000, 69.000000)">
                <path d="M0,11.5 L34,11.5" id="Stroke-1" stroke="#4A89DC" stroke-width="22.95"></path>
                <path d="M10.5,0 L10.5,23 M0,11.5 L34,11.5" id="Stroke-3" stroke="#FFCE54" stroke-width="5"></path>
            </g>
            <g id="FIN" transform="translate(0.000000, 23.000000)">
                <path d="M0,11.5 L34,11.5" id="Stroke-1" stroke="#FFFFFF" stroke-width="22.95"></path>
                <path d="M10.5,0 L10.5,23 M0,11.5 L34,11.5" id="Stroke-3" stroke="#4A89DC" stroke-width="5"></path>
            </g>
            <g id="GEO" transform="translate(68.000000, 23.000000)">
                <path d="M0,11.5 L34,11.5" id="Stroke-1" stroke="#FFFFFF" stroke-width="22.95"></path>
                <path d="M16.5,0 L16.5,23 M0,11.5 L34,11.5" id="Stroke-3" stroke="#DC515E" stroke-width="5"></path>
                <path d="M7,1 L7,7 M4,4 L10,4" id="Stroke-4" stroke="#DC515E" stroke-width="1.7"></path>
                <path d="M25.9934783,1 L25.9934783,7 M23,4 L28.9869565,4" id="Stroke-5" stroke="#DC515E" stroke-width="1.7"></path>
                <path d="M6.99347826,16 L6.99347826,22 M4,19 L9.98695652,19" id="Stroke-5" stroke="#DC515E" stroke-width="1.7"></path>
                <path d="M25.9934783,16 L25.9934783,22 M23,19 L28.9869565,19" id="Stroke-6" stroke="#DC515E" stroke-width="1.7"></path>
            </g>
            <g id="NED" transform="translate(238.000000, 46.000000)">
                <path d="M0,19 L34,19" id="Stroke-3" stroke="#4A89DC" stroke-width="8"></path>
                <path d="M0,11.5 L34,11.5" id="Stroke-1" stroke="#FFFFFF" stroke-width="7"></path>
                <path d="M0,4 L34,4" id="Stroke-2" stroke="#DD505E" stroke-width="8"></path>
            </g>
            <g id="HUN" transform="translate(170.000000, 23.000000)">
                <path d="M0,19 L34,19" id="Stroke-3" stroke="#509F5D" stroke-width="8"></path>
                <path d="M0,11.5 L34,11.5" id="Stroke-1" stroke="#FFFFFF" stroke-width="7"></path>
                <path d="M0,4 L34,4" id="Stroke-2" stroke="#DD505E" stroke-width="8"></path>
            </g>
            <g id="LIT" transform="translate(170.000000, 46.000000)">
                <path d="M0,19 L34,19" id="Stroke-2" stroke="#DD505E" stroke-width="8"></path>
                <path d="M0,11.5 L34,11.5" id="Stroke-3" stroke="#509F5D" stroke-width="7"></path>
                <path d="M0,4 L34,4" id="Stroke-1" stroke="#FFCE54" stroke-width="8"></path>
            </g>
            <g id="GER" transform="translate(102.000000, 23.000000)">
                <path d="M0,19 L34,19" id="Stroke-2" stroke="#FFCE54" stroke-width="8"></path>
                <path d="M0,11.5 L34,11.5" id="Stroke-3" stroke="#DC515E" stroke-width="7"></path>
                <path d="M0,4 L34,4" id="Stroke-1" stroke="#000000" stroke-width="8"></path>
            </g>
            <g id="BLG" transform="translate(136.000000, 0.000000)">
                <path d="M0,19 L34,19" id="Stroke-2" stroke="#DC515E" stroke-width="8"></path>
                <path d="M0,11.5 L34,11.5" id="Stroke-3" stroke="#509F5D" stroke-width="7"></path>
                <path d="M0,4 L34,4" id="Stroke-1" stroke="#FFFFFF" stroke-width="8"></path>
            </g>
            <g id="IRN" transform="translate(306.000000, 23.000000)">
                <path d="M0,19.1666667 L34,19.1666667" id="Stroke-2" stroke="#DC515E" stroke-width="7.65"></path>
                <path d="M0,11.5 L34,11.5" id="Stroke-3" stroke="#FFFFFF" stroke-width="7.65"></path>
                <path d="M0,3.83333333 L34,3.83333333" id="Stroke-1" stroke="#509F5D" stroke-width="7.65"></path>
                <g id="Group" transform="translate(0.850000, 5.962963)" fill="#FFFFFF">
                    <ellipse id="Oval-34" cx="0.85" cy="0.851851852" rx="0.85" ry="0.851851852"></ellipse>
                    <ellipse id="Oval-35" cx="3.4" cy="0.851851852" rx="0.85" ry="0.851851852"></ellipse>
                    <ellipse id="Oval-37" cx="5.95" cy="0.851851852" rx="0.85" ry="0.851851852"></ellipse>
                    <ellipse id="Oval-36" cx="8.5" cy="0.851851852" rx="0.85" ry="0.851851852"></ellipse>
                    <ellipse id="Oval-41" cx="11.05" cy="0.851851852" rx="0.85" ry="0.851851852"></ellipse>
                    <ellipse id="Oval-38" cx="13.6" cy="0.851851852" rx="0.85" ry="0.851851852"></ellipse>
                    <ellipse id="Oval-39" cx="16.15" cy="0.851851852" rx="0.85" ry="0.851851852"></ellipse>
                    <ellipse id="Oval-40" cx="18.7" cy="0.851851852" rx="0.85" ry="0.851851852"></ellipse>
                    <ellipse id="Oval-45" cx="21.25" cy="0.851851852" rx="0.85" ry="0.851851852"></ellipse>
                    <ellipse id="Oval-42" cx="23.8" cy="0.851851852" rx="0.85" ry="0.851851852"></ellipse>
                    <ellipse id="Oval-43" cx="26.35" cy="0.851851852" rx="0.85" ry="0.851851852"></ellipse>
                    <ellipse id="Oval-44" cx="28.9" cy="0.851851852" rx="0.85" ry="0.851851852"></ellipse>
                    <ellipse id="Oval-46" cx="31.45" cy="0.851851852" rx="0.85" ry="0.851851852"></ellipse>
                    <ellipse id="Oval-59" cx="0.85" cy="10.2222222" rx="0.85" ry="0.851851852"></ellipse>
                    <ellipse id="Oval-47" cx="3.4" cy="10.2222222" rx="0.85" ry="0.851851852"></ellipse>
                    <ellipse id="Oval-48" cx="5.95" cy="10.2222222" rx="0.85" ry="0.851851852"></ellipse>
                    <ellipse id="Oval-49" cx="8.5" cy="10.2222222" rx="0.85" ry="0.851851852"></ellipse>
                    <ellipse id="Oval-50" cx="11.05" cy="10.2222222" rx="0.85" ry="0.851851852"></ellipse>
                    <ellipse id="Oval-51" cx="13.6" cy="10.2222222" rx="0.85" ry="0.851851852"></ellipse>
                    <ellipse id="Oval-52" cx="16.15" cy="10.2222222" rx="0.85" ry="0.851851852"></ellipse>
                    <ellipse id="Oval-53" cx="18.7" cy="10.2222222" rx="0.85" ry="0.851851852"></ellipse>
                    <ellipse id="Oval-54" cx="21.25" cy="10.2222222" rx="0.85" ry="0.851851852"></ellipse>
                    <ellipse id="Oval-55" cx="23.8" cy="10.2222222" rx="0.85" ry="0.851851852"></ellipse>
                    <ellipse id="Oval-56" cx="26.35" cy="10.2222222" rx="0.85" ry="0.851851852"></ellipse>
                    <ellipse id="Oval-57" cx="28.9" cy="10.2222222" rx="0.85" ry="0.851851852"></ellipse>
                    <ellipse id="Oval-58" cx="31.45" cy="10.2222222" rx="0.85" ry="0.851851852"></ellipse>
                </g>
                <path d="M16.575,8.51851852 C18.2172,8.51851852 19.55,9.85422222 19.55,11.5 C19.55,13.1457778 18.2172,14.4814815 16.575,14.4814815 C14.9328,14.4814815 13.6,13.1457778 13.6,11.5 C13.6,9.85422222 14.9328,8.51851852 16.575,8.51851852 Z M16.575,8.51851852 C15.402,8.51851852 14.45,9.47259259 14.45,10.6481481 C14.45,11.8237037 15.402,12.7777778 16.575,12.7777778 C17.748,12.7777778 18.7,11.8237037 18.7,10.6481481 C18.7,9.47259259 17.748,8.51851852 16.575,8.51851852 Z" id="Fill-1" fill="#DC515E"></path>
                <ellipse id="Oval-33" fill="#DC515E" cx="16.575" cy="10.6481481" rx="0.425" ry="2.12962963"></ellipse>
            </g>
            <g id="SLK" transform="translate(170.000000, 69.000000)">
                <path d="M0,19.1666667 L34,19.1666667" id="Stroke-3" stroke="#DC515E" stroke-width="7.65"></path>
                <path d="M0,11.5 L34,11.5" id="Stroke-1" stroke="#425191" stroke-width="7.65"></path>
                <path d="M0,3.83333333 L34,3.83333333" id="Stroke-2" stroke="#FFFFFE" stroke-width="7.65"></path>
                <path d="M8.93031693,7.7731938 C7.55075063,7.7731938 6.80496247,6.81481481 6.80496247,6.81481481 C6.80496247,6.81481481 6.05633862,7.7731938 4.67677231,7.7731938 C3.40638032,7.7731938 2.55,6.97697955 2.55,6.97697955 L2.55,12.1867044 C2.5882819,15.6184608 6.79929108,17.037037 6.79929108,17.037037 C6.79929108,17.037037 11.05,15.6184608 11.05,12.1867044 L11.05,6.97697955 C11.05,6.97697955 10.2007089,7.7731938 8.93031693,7.7731938" id="Fill-1" fill="#FFFFFF"></path>
                <path d="M8.50339321,8.0398832 C7.4005988,8.0398832 6.80508982,7.24074074 6.80508982,7.24074074 C6.80508982,7.24074074 6.20618762,8.0398832 5.10169661,8.0398832 C4.08542914,8.0398832 3.4,7.37676499 3.4,7.37676499 L3.4,11.7176388 C3.43053892,14.5775486 6.8,15.7592593 6.8,15.7592593 C6.8,15.7592593 10.2,14.5775486 10.2,11.7176388 L10.2,7.37676499 C10.2,7.37676499 9.51966068,8.0398832 8.50339321,8.0398832" id="Fill-2" fill="#DD505E"></path>
            </g>
            <g id="CRO" transform="translate(204.000000, 0.000000)">
                <path d="M0,19 L34,19" id="Stroke-3" stroke="#425091" stroke-width="8"></path>
                <path d="M0,11.5 L34,11.5" id="Stroke-1" stroke="#FFFFFF" stroke-width="7"></path>
                <path d="M0,4 L34,4" id="Stroke-2" stroke="#DC515E" stroke-width="8"></path>
                <path d="M19.1303169,6.73501077 C17.7507506,6.73501077 17.0049625,5.53703704 17.0049625,5.53703704 C17.0049625,5.53703704 16.2563386,6.73501077 14.8767723,6.73501077 C13.6063803,6.73501077 12.75,5.73974296 12.75,5.73974296 L12.75,12.251899 C12.7882819,16.5415945 16.9992911,18.3148148 16.9992911,18.3148148 C16.9992911,18.3148148 21.25,16.5415945 21.25,12.251899 L21.25,5.73974296 C21.25,5.73974296 20.4007089,6.73501077 19.1303169,6.73501077" id="Fill-1" fill="#FFFFFF"></path>
                <path d="M18.7033932,7.77378576 C17.6005988,7.77378576 17.0050898,6.81481481 17.0050898,6.81481481 C17.0050898,6.81481481 16.4061876,7.77378576 15.3016966,7.77378576 C14.2854291,7.77378576 13.6,6.97804391 13.6,6.97804391 L13.6,12.1870925 C13.6305389,15.6189843 17,17.037037 17,17.037037 C17,17.037037 20.4,15.6189843 20.4,12.1870925 L20.4,6.97804391 C20.4,6.97804391 19.7196607,7.77378576 18.7033932,7.77378576" id="Fill-2" fill="#DD505E"></path>
            </g>
            <g id="SLO" transform="translate(204.000000, 69.000000)">
                <path d="M0,19.1666667 L34,19.1666667" id="Stroke-2" stroke="#DC515E" stroke-width="7.65"></path>
                <path d="M0,11.5 L34,11.5" id="Stroke-3" stroke="#425191" stroke-width="7.65"></path>
                <path d="M0,3.83333333 L34,3.83333333" id="Stroke-1" stroke="#FFFFFF" stroke-width="7.65"></path>
                <path d="M8.50425354,5.05790842 C7.4006005,5.05790842 6.80396997,4.25925926 6.80396997,4.25925926 C6.80396997,4.25925926 6.20507089,5.05790842 5.10141785,5.05790842 C4.08510425,5.05790842 3.4,4.39439654 3.4,4.39439654 L3.4,8.73583388 C3.43062552,11.5956309 6.79943286,12.7777778 6.79943286,12.7777778 C6.79943286,12.7777778 10.2,11.5956309 10.2,8.73583388 L10.2,4.39439654 C10.2,4.39439654 9.52056714,5.05790842 8.50425354,5.05790842" id="Fill-2" fill="#FFFFFF"></path>
                <path d="M8.07754491,5.75042508 C7.2504491,5.75042508 6.80381737,5.11111111 6.80381737,5.11111111 C6.80381737,5.11111111 6.35464072,5.75042508 5.52627246,5.75042508 C4.76407186,5.75042508 4.25,5.21993051 4.25,5.21993051 L4.25,8.69262956 C4.27290419,10.9805574 6.8,11.9259259 6.8,11.9259259 C6.8,11.9259259 9.35,10.9805574 9.35,8.69262956 L9.35,5.21993051 C9.35,5.21993051 8.83974551,5.75042508 8.07754491,5.75042508" id="Fill-3" fill="#425191"></path>
            </g>
            <g id="IND" transform="translate(238.000000, 23.000000)">
                <path d="M0,19 L34,19" id="Stroke-2" stroke="#509F5D" stroke-width="8"></path>
                <path d="M0,11.5 L34,11.5" id="Stroke-3" stroke="#FFFFFF" stroke-width="7"></path>
                <path d="M0,4 L34,4" id="Stroke-1" stroke="#DC9551" stroke-width="8"></path>
                <path d="M16.575,8.94444444 C17.9826,8.94444444 19.125,10.0893333 19.125,11.5 C19.125,12.9106667 17.9826,14.0555556 16.575,14.0555556 C15.1657,14.0555556 14.025,12.9106667 14.025,11.5 C14.025,10.0893333 15.1657,8.94444444 16.575,8.94444444" id="Fill-4" stroke="#425191" stroke-width="0.85"></path>
            </g>
            <g id="RUS" transform="translate(102.000000, 69.000000)">
                <path d="M0,19 L34,19" id="Stroke-2" stroke="#DC515E" stroke-width="8"></path>
                <path d="M0,11.5 L34,11.5" id="Stroke-3" stroke="#4A89DC" stroke-width="7"></path>
                <path d="M0,4 L34,4" id="Stroke-1" stroke="#FFFFFF" stroke-width="8"></path>
            </g>
            <g id="EST" transform="translate(306.000000, 0.000000)">
                <path d="M0,19 L34,19" id="Stroke-3" stroke="#FFFFFF" stroke-width="8"></path>
                <path d="M0,11.5 L34,11.5" id="Stroke-1" stroke="#000000" stroke-width="7"></path>
                <path d="M0,4 L34,4" id="Stroke-2" stroke="#4A89DC" stroke-width="8"></path>
            </g>
            <g id="ALB">
                <path d="M0,11.5 L34,11.5" id="Stroke-1" stroke="#FFFFFF" stroke-width="7.65"></path>
                <path d="M0,11.5 L34,11.5" id="Stroke-2" stroke="#DD505E" stroke-width="22.95"></path>
                <path id="Stroke-3" stroke="#527CB1" stroke-width="7.65"></path>
                <path d="M17,7.43496296 C16.796,7.39918519 16.79005,7.3352963 16.89375,7.18877778 C16.9371,7.12659259 16.9014,7.08911111 16.75945,7.1317037 C16.65405,7.16322222 16.53505,7.0132963 16.4815,6.94344444 C16.43305,6.87955556 16.43815,6.86762963 16.4968,6.86762963 C16.5546,6.86762963 16.66425,6.81481481 16.69315,6.77733333 C16.7229,6.73985185 16.71525,6.6947037 16.63535,6.70918519 C16.5546,6.72451852 16.3166,6.60014815 16.2265,6.47492593 C16.1823,6.41444444 16.1755,6.38462963 16.2486,6.36162963 C16.3217,6.33948148 16.39395,6.29433333 16.44495,6.256 C16.4968,6.21851852 16.46705,6.17337037 16.37185,6.15803704 C16.2775,6.1427037 16.0701,6.0277037 15.9783,5.90844444 C15.94855,5.87096296 15.91965,5.82581481 16.0072,5.80281481 C16.09475,5.77981481 16.3064,5.62903704 16.36505,5.54555556 C16.4237,5.46292593 16.4305,5.37177778 16.26305,5.44759259 C16.09475,5.52340741 15.759,5.54555556 15.5618,5.50040741 C15.14615,5.29681481 14.5401,5.03188889 14.3072,5.41777778 C13.9128,5.39477778 13.4385,5.37177778 13.52605,5.87777778 C13.60425,5.87096296 13.6476,5.82411111 13.67225,5.773 C13.70625,5.69888889 13.82355,5.68611111 13.9349,5.727 C14.03095,5.76277778 14.11,5.81644444 14.0386,5.90503704 C14.00205,5.95018519 13.8601,5.97233333 13.77255,5.95018519 C13.68415,5.92718519 13.5218,5.90077778 13.42745,5.8897037 C13.3637,5.88203704 13.2379,5.79940741 13.17925,5.68185185 C13.1206,5.5642963 12.971,5.42544444 12.87665,5.50807407 C12.78145,5.59155556 12.8945,5.73125926 12.9897,5.81814815 C13.08405,5.90503704 13.27785,6.01407407 13.37985,6.01407407 C13.515,6.01407407 13.64675,6.04814815 13.7156,6.06348148 C13.74875,6.33011111 14.0879,6.45107407 14.37265,6.44340741 C14.6574,6.43574074 15.0331,6.57885185 15.3799,6.8752963 C15.8287,7.25948148 16.14575,8.52874074 15.3867,8.52874074 C14.9124,8.52874074 14.9855,8.03722222 14.99995,7.75781481 C15.01525,7.47840741 14.86905,7.176 14.54775,7.05588889 C14.22645,6.93492593 13.5694,6.69981481 13.3875,6.59503704 C13.3144,6.54137037 13.23705,6.72877778 13.22685,6.83611111 C13.2192,6.91192593 13.1376,6.91874074 12.90555,6.84377778 C12.2485,6.63251852 11.6501,6.26962963 11.36535,5.71081481 C11.0806,5.152 10.54425,5.70059259 10.8103,6.17166667 C11.1316,6.73814815 12.20515,7.199 12.88345,7.2892963 C13.1988,7.33188889 13.19625,7.72203704 12.8979,7.76548148 C12.2774,7.85662963 11.6705,7.84385185 11.29225,7.3352963 C11.0007,6.94259259 10.7134,7.29525926 10.84005,7.60703704 C11.1095,8.27148148 12.02665,8.55174074 12.92,8.10537037 C13.13165,7.99974074 13.3586,8.01762963 13.175,8.27914815 C12.716,8.93677778 12.10315,9.03814815 11.33645,8.55088889 C11.1095,8.40777778 10.93525,8.43077778 10.8834,8.52107407 C10.79415,8.68037037 10.75335,8.82433333 11.01515,9.01940741 C11.59145,9.45044444 12.25955,9.41977778 12.7959,9.1327037 C13.00755,9.01940741 13.3943,8.92911111 13.05175,9.39762963 C12.70835,9.86614815 11.83285,10.1072222 11.475,9.84314815 C11.11715,9.57907407 10.67175,9.82014815 10.9565,10.2281852 C11.24125,10.6362222 11.83285,10.5305926 12.1023,10.3798148 C12.3726,10.2281852 12.78825,10.0245926 12.9642,9.94111111 C13.1393,9.85848148 13.2209,9.99988889 13.022,10.2358519 C12.5766,10.7648519 12.11845,11.2095185 11.4971,10.9991111 C11.13925,10.8781481 10.8103,10.8628148 10.9055,11.316 C11.0007,11.7691852 11.73765,11.7998519 12.1023,11.5732593 C12.4678,11.3466667 12.7959,11.0894074 13.0152,10.8704815 C13.23365,10.6515556 13.4555,10.6600741 13.2124,11.0289259 C12.665,11.8603333 12.1975,12.4685556 11.41635,12.3135185 C10.69385,12.1704074 10.8732,12.6193333 11.0296,12.759037 C11.475,13.1594074 12.25615,13.0537778 13.1903,11.868 C13.2634,11.7751481 13.3858,11.8024074 13.3212,11.9736296 C12.90555,13.0844444 12.21195,13.8017037 11.54045,13.6279259 C11.1911,13.5376296 10.8511,13.7386667 11.2047,14.058963 C11.60675,14.421 12.33605,14.2855556 12.86135,13.6807407 C13.3875,13.0767778 13.70795,12.6457407 13.82525,12.4191481 C13.9417,12.1925556 14.1168,12.1848889 14.0947,12.4796296 C14.07345,12.7743704 13.8618,13.3485185 13.4895,13.5376296 C13.29655,13.6355926 13.12485,13.8545185 13.4895,14.0214815 C13.85415,14.1867407 14.2851,13.5146296 14.6353,12.5324444 C14.6761,12.4174444 14.9175,12.3884815 14.9124,12.6082593 C14.9056,12.9174815 14.7594,13.1747407 14.59875,13.3255185 C14.4381,13.4771481 14.5639,13.7301481 14.7815,13.6279259 C15.0875,13.4848148 15.2813,13.2735556 15.402,12.9558148 C15.46745,12.782037 15.61535,12.7224074 15.5329,12.9932963 C15.2847,13.8093704 14.7305,14.2020741 14.00035,14.5802963 C14.11,14.6935926 14.2086,14.817963 14.3072,14.9201852 C13.85755,15.1578519 13.3875,15.3162963 13.0152,15.4755926 C12.7194,15.2711481 12.45675,15.1578519 12.325,14.9653333 C12.28165,14.7046667 11.9748,14.5913704 11.7776,14.7046667 C11.43845,14.5692222 11.1979,14.6024444 11.1758,14.9312593 C11.373,14.8971852 11.53705,14.8631111 11.679,14.9994074 C11.7453,15.1578519 11.9527,15.2370741 12.1499,15.1689259 C12.3692,15.3052222 12.55535,15.4415185 12.68625,15.5318148 C12.2706,15.5207407 11.96375,15.4977407 11.7453,15.4755926 C11.53705,15.2600741 11.33985,15.2600741 11.18685,15.4074444 C10.93525,15.3503704 10.73805,15.4713333 10.67175,15.6979259 C10.86215,15.6757778 11.03725,15.6076296 11.16135,15.6757778 C11.26335,15.8717037 11.5481,15.8793704 11.73,15.7362593 C12.00795,15.7285926 12.5477,15.7209259 12.6718,15.7209259 C12.4899,15.8342222 12.2706,15.9696667 12.16095,16.0378148 C11.73,15.9475185 11.4971,16.1212963 11.526,16.4458519 C11.424,16.611963 11.4308,16.8462222 11.5549,16.9518519 C11.58465,16.8164074 11.6569,16.6426296 11.75975,16.5446667 C12.0224,16.5974815 12.21195,16.5063333 12.2927,16.2039259 C12.46015,16.0906296 12.67945,15.9475185 12.767,15.887037 C12.85455,15.8265556 12.92425,15.7575556 13.12485,15.8495556 C13.3212,15.9398519 13.50395,16.0156667 13.6204,16.082963 C13.6867,16.3478889 13.9349,16.3632222 14.0947,16.2422593 C14.19755,16.3027407 14.2851,16.4083704 14.34375,16.5216667 C14.4381,16.3478889 14.3871,16.1136296 14.20435,16.0531481 C14.1389,15.8495556 13.90515,15.7814074 13.7377,15.8793704 C13.59915,15.8188889 13.40195,15.7209259 13.3144,15.6825926 C13.59915,15.576963 14.32165,15.2975556 14.57665,15.1842593 C14.81805,15.3733704 15.0875,15.5548148 15.2847,15.502 C15.3136,15.3205556 15.40455,15.1714815 15.5261,14.9125185 C15.71905,14.5010741 15.9596,14.1151852 16.1568,13.8775185 C16.354,13.6398519 16.55375,13.7761481 16.54015,14.1041111 C16.507,14.8971852 15.94175,16.082963 15.1096,16.128963 C14.82485,16.1442963 14.7118,16.2047778 14.86905,16.4237037 C15.01525,16.6272963 15.46745,16.6537037 15.71905,16.4611852 C15.97065,16.2686667 16.0582,16.2797407 16.0072,16.537 C15.9562,16.7934074 15.67145,16.8913704 15.4598,16.9067037 C15.1538,16.9297037 14.8036,17.043 15.0875,17.3147407 C15.37225,17.5864815 15.83975,17.4357037 16.1823,17.0276667 C16.3013,16.8862593 16.39565,16.8462222 16.38715,17.0728148 C16.37185,17.4655185 16.14575,17.7151111 15.91285,17.7679259 C15.6791,17.8207407 15.44535,17.8846296 15.5108,18.0251852 C15.62045,18.2594444 15.9851,18.2969259 16.18995,18.1836296 C16.39395,18.0703333 16.61325,17.8590741 16.6566,17.7304444 C16.7008,17.6018148 16.79005,17.6750741 16.76625,17.8514074 C16.71525,18.2287778 16.46025,18.2211111 16.46025,18.5311852 C16.46025,18.8412593 16.70845,19.1428148 17,19.4827037 C17.29155,19.1428148 17.53975,18.8412593 17.53975,18.5311852 C17.53975,18.2211111 17.28475,18.2287778 17.23375,17.8514074 C17.20995,17.6750741 17.2992,17.6018148 17.3434,17.7304444 C17.38675,17.8590741 17.60605,18.0703333 17.81005,18.1836296 C18.0149,18.2969259 18.37955,18.2594444 18.4892,18.0251852 C18.55465,17.8846296 18.3209,17.8207407 18.088,17.7679259 C17.85425,17.7151111 17.62815,17.4655185 17.61285,17.0728148 C17.60435,16.8462222 17.6987,16.8862593 17.8177,17.0276667 C18.16025,17.4357037 18.62775,17.5864815 18.9125,17.3147407 C19.19725,17.043 18.84705,16.9297037 18.5402,16.9067037 C18.32855,16.8913704 18.0438,16.7934074 17.9928,16.537 C17.9418,16.2797407 18.02935,16.2686667 18.28095,16.4611852 C18.53255,16.6537037 18.9856,16.6272963 19.1318,16.4237037 C19.2882,16.2047778 19.17515,16.1442963 18.8904,16.128963 C18.05825,16.082963 17.493,14.8971852 17.45985,14.1041111 C17.44625,13.7761481 17.646,13.6398519 17.8432,13.8775185 C18.0404,14.1151852 18.28095,14.5010741 18.47475,14.9125185 C18.59545,15.1714815 18.6864,15.3205556 18.7153,15.502 C18.9125,15.5548148 19.1828,15.3733704 19.42335,15.1842593 C19.67835,15.2975556 20.4017,15.576963 20.6856,15.6825926 C20.59805,15.7209259 20.4017,15.8188889 20.2623,15.8793704 C20.09485,15.7814074 19.8611,15.8495556 19.79565,16.0531481 C19.6129,16.1136296 19.5619,16.3478889 19.6571,16.5216667 C19.7149,16.4083704 19.80245,16.3027407 19.9053,16.2422593 C20.0651,16.3632222 20.3133,16.3478889 20.3796,16.082963 C20.49605,16.0156667 20.6788,15.9398519 20.87515,15.8495556 C21.07575,15.7575556 21.14545,15.8265556 21.233,15.887037 C21.32055,15.9475185 21.53985,16.0906296 21.70815,16.2039259 C21.78805,16.5063333 21.9776,16.5974815 22.24025,16.5446667 C22.3431,16.6426296 22.41535,16.8164074 22.4451,16.9518519 C22.5692,16.8462222 22.576,16.611963 22.474,16.4458519 C22.5029,16.1212963 22.27,15.9475185 21.83905,16.0378148 C21.7294,15.9696667 21.51095,15.8342222 21.3282,15.7209259 C21.4523,15.7209259 21.99205,15.7285926 22.27,15.7362593 C22.4519,15.8793704 22.73665,15.8717037 22.83865,15.6757778 C22.96275,15.6076296 23.1387,15.6757778 23.32825,15.6979259 C23.26195,15.4713333 23.0656,15.3503704 22.81315,15.4074444 C22.66015,15.2600741 22.46295,15.2600741 22.25555,15.4755926 C22.03625,15.4977407 21.7294,15.5207407 21.31375,15.5318148 C21.44465,15.4415185 21.6308,15.3052222 21.8501,15.1689259 C22.0473,15.2370741 22.25555,15.1578519 22.321,14.9994074 C22.46295,14.8631111 22.627,14.8971852 22.8242,14.9312593 C22.8021,14.6024444 22.56155,14.5692222 22.2224,14.7046667 C22.0252,14.5913704 21.71835,14.7046667 21.675,14.9653333 C21.54325,15.1578519 21.2806,15.2711481 20.9848,15.4755926 C20.6125,15.3162963 20.14245,15.1578519 19.6928,14.9201852 C19.7914,14.817963 19.89,14.6935926 19.99965,14.5802963 C19.27035,14.2020741 18.7153,13.8093704 18.4671,12.9932963 C18.38465,12.7224074 18.53255,12.782037 18.59885,12.9558148 C18.7187,13.2735556 18.9125,13.4848148 19.2185,13.6279259 C19.4361,13.7301481 19.5619,13.4771481 19.40125,13.3255185 C19.2406,13.1747407 19.09525,12.9174815 19.0876,12.6082593 C19.0825,12.3884815 19.3239,12.4174444 19.3647,12.5324444 C19.7149,13.5146296 20.14585,14.1867407 20.5105,14.0214815 C20.87515,13.8545185 20.70345,13.6355926 20.5105,13.5376296 C20.1382,13.3485185 19.92655,12.7743704 19.9053,12.4796296 C19.8832,12.1848889 20.0583,12.1925556 20.17475,12.4191481 C20.29205,12.6457407 20.6125,13.0767778 21.13865,13.6807407 C21.66395,14.2855556 22.39325,14.421 22.7953,14.058963 C23.14975,13.7386667 22.8089,13.5376296 22.45955,13.6279259 C21.78805,13.8017037 21.09445,13.0844444 20.6788,11.9736296 C20.6142,11.8024074 20.7366,11.7751481 20.8097,11.868 C21.74385,13.0537778 22.525,13.1594074 22.9704,12.759037 C23.1268,12.6193333 23.30615,12.1704074 22.58365,12.3135185 C21.8025,12.4685556 21.335,11.8603333 20.78845,11.0289259 C20.5445,10.6600741 20.76635,10.6515556 20.9848,10.8704815 C21.2041,11.0894074 21.5322,11.3466667 21.8977,11.5732593 C22.26235,11.7998519 22.9993,11.7691852 23.0945,11.316 C23.1897,10.8628148 22.86075,10.8781481 22.5029,10.9991111 C21.88155,11.2095185 21.4234,10.7648519 20.978,10.2358519 C20.7791,9.99988889 20.86155,9.85848148 21.03665,9.94111111 C21.21175,10.0245926 21.6274,10.2281852 21.8977,10.3798148 C22.16715,10.5305926 22.75875,10.6362222 23.0435,10.2281852 C23.32825,9.82014815 22.88285,9.57907407 22.525,9.84314815 C22.16715,10.1072222 21.29165,9.86614815 20.94825,9.39762963 C20.6057,8.92911111 20.99245,9.01940741 21.2041,9.1327037 C21.74045,9.41977778 22.40855,9.45044444 22.98485,9.01940741 C23.24665,8.82433333 23.20585,8.68037037 23.1166,8.52107407 C23.0656,8.43077778 22.8905,8.40777778 22.66355,8.55088889 C21.89685,9.03814815 21.284,8.93677778 20.825,8.27914815 C20.6414,8.01762963 20.86835,7.99974074 21.08,8.10537037 C21.97335,8.55174074 22.8905,8.27148148 23.15995,7.60703704 C23.2866,7.29525926 22.9993,6.94259259 22.70775,7.3352963 C22.3295,7.84385185 21.7226,7.85662963 21.1021,7.76548148 C20.80375,7.72203704 20.8012,7.33188889 21.11655,7.2892963 C21.7957,7.199 22.8684,6.73814815 23.1897,6.17166667 C23.45575,5.70059259 22.9194,5.152 22.63465,5.71081481 C22.3499,6.26962963 21.7515,6.63251852 21.09445,6.84377778 C20.86325,6.91874074 20.7808,6.91192593 20.77315,6.83611111 C20.76295,6.72877778 20.6856,6.54137037 20.6125,6.59503704 C20.4306,6.69981481 19.77355,6.93492593 19.45225,7.05588889 C19.1318,7.176 18.9856,7.47840741 19.00005,7.75781481 C19.0145,8.03722222 19.0876,8.52874074 18.6133,8.52874074 C17.85425,8.52874074 18.1713,7.25948148 18.6201,6.8752963 C18.9669,6.57885185 19.3426,6.43574074 19.62735,6.44340741 C19.9121,6.45107407 20.25125,6.33011111 20.2844,6.06348148 C20.3541,6.04814815 20.485,6.01407407 20.62015,6.01407407 C20.72215,6.01407407 20.91595,5.90503704 21.0103,5.81814815 C21.1055,5.73125926 21.21855,5.59155556 21.12335,5.50807407 C21.029,5.42544444 20.8794,5.5642963 20.82075,5.68185185 C20.7621,5.79940741 20.63715,5.88203704 20.57255,5.8897037 C20.4782,5.90077778 20.31585,5.92718519 20.22745,5.95018519 C20.1399,5.97233333 19.99795,5.95018519 19.9614,5.90503704 C19.89,5.81644444 19.96905,5.76277778 20.0651,5.727 C20.17645,5.68611111 20.29375,5.69888889 20.32775,5.773 C20.3524,5.82411111 20.39575,5.87096296 20.47395,5.87777778 C20.5615,5.37177778 20.0872,5.39477778 19.6928,5.41777778 C19.4599,5.03188889 18.85385,5.29681481 18.4382,5.50040741 C18.241,5.54555556 17.90525,5.52340741 17.73695,5.44759259 C17.5695,5.37177778 17.5763,5.46292593 17.63495,5.54555556 C17.6936,5.62903704 17.90525,5.77981481 17.9928,5.80281481 C18.08035,5.82581481 18.05145,5.87096296 18.0217,5.90844444 C17.9299,6.0277037 17.7225,6.1427037 17.62815,6.15803704 C17.53295,6.17337037 17.50405,6.21851852 17.55505,6.256 C17.60605,6.29433333 17.67915,6.33948148 17.7514,6.36162963 C17.8245,6.38462963 17.8177,6.41444444 17.7735,6.47492593 C17.6834,6.60014815 17.4454,6.72451852 17.36465,6.70918519 C17.28475,6.6947037 17.2771,6.73985185 17.30685,6.77733333 C17.33575,6.81481481 17.4454,6.86762963 17.50405,6.86762963 C17.56185,6.86762963 17.56695,6.87955556 17.5185,6.94344444 C17.46495,7.0132963 17.3468,7.16322222 17.24055,7.1317037 C17.0986,7.08911111 17.0629,7.12659259 17.1071,7.18877778 C17.20995,7.3352963 17.20485,7.39918519 17,7.43496296" id="Fill-4" fill="#FFFFFF"></path>
                <path d="M17.1904,11.4403704 C17.07055,11.3781852 16.9354,11.3568889 16.8334,11.402037 C16.73055,11.448037 16.7093,11.5536667 16.82575,11.5911481 C16.9422,11.6294815 17.09605,11.6294815 17.17595,11.6064815 C17.2567,11.5834815 17.29325,11.4931852 17.1904,11.4403704" id="Fill-5" fill="#FFFFFF"></path>
                <path d="M16.8096,11.4403704 C16.92945,11.3781852 17.0646,11.3568889 17.16745,11.402037 C17.26945,11.448037 17.2907,11.5536667 17.17425,11.5911481 C17.0578,11.6294815 16.90395,11.6294815 16.82405,11.6064815 C16.74415,11.5834815 16.70675,11.4931852 16.8096,11.4403704" id="Fill-6" fill="#FFFFFF"></path>
            </g>
            <g id="CHN" transform="translate(170.000000, 0.000000)">
                <path d="M0,11.5 L34,11.5" id="Stroke-1" stroke="#DC515E" stroke-width="22.95"></path>
                <polygon id="Imported-Layers" fill="#FFCE54" points="6.41927097 5.11423069 9.78973389 5.11423069 7.20044339 6.83408672 8.09851861 10.2260559 5.53862698 7.66666667 2.981375 10.2260556 3.85502123 6.83408672 1.275 5.11423069 4.6568767 5.11423069 5.53862698 1.7037037"></polygon>
                <ellipse id="Oval-29" fill="#FFCE54" cx="9.35" cy="2.55555556" rx="0.85" ry="0.851851852"></ellipse>
                <ellipse id="Oval-30" fill="#FFCE54" cx="11.05" cy="5.11111111" rx="0.85" ry="0.851851852"></ellipse>
                <ellipse id="Oval-31" fill="#FFCE54" cx="11.05" cy="7.66666667" rx="0.85" ry="0.851851852"></ellipse>
                <ellipse id="Oval-32" fill="#FFCE54" cx="9.35" cy="10.2222222" rx="0.85" ry="0.851851852"></ellipse>
            </g>
            <g id="ARM" transform="translate(33.000000, 0.000000)">
                <path d="M1,11.5 L35,11.5" id="Stroke-1" stroke="#425091" stroke-width="7"></path>
                <path d="M1,4 L35,4" id="Stroke-2" stroke="#DD505E" stroke-width="8"></path>
                <path d="M1,19 L35,19" id="Stroke-3" stroke="#FACA5A" stroke-width="8"></path>
            </g>
            <g id="ESP" transform="translate(237.000000, 69.000000)">
                <path d="M1,19.9333333 L35,19.9333333" id="Stroke-3" stroke="#DC505E" stroke-width="5.95"></path>
                <path d="M1,11.5 L35,11.5" id="Stroke-1" stroke="#FACA5A" stroke-width="11.05"></path>
                <path d="M1,3 L35,3" id="Stroke-2" stroke="#DD505E" stroke-width="5.95"></path>
            </g>
            <g id="ISR" transform="translate(0.000000, 46.000000)">
                <g id="Group-2" transform="translate(0.000000, 0.400002)">
                    <path d="M0,21.3235294 L34,21.3235294" id="Stroke-3" stroke="#4A89DC" stroke-width="2.55"></path>
                    <path d="M0,11.0882353 L34,11.0882353" id="Stroke-1" stroke="#FFFFFF" stroke-width="17.85"></path>
                    <path d="M0,0.852941176 L34,0.852941176" id="Stroke-2" stroke="#4A89DC" stroke-width="2.55"></path>
                    <polygon id="Path" stroke="#4A89DC" stroke-width="1.7" points="16.9238358 5.97058824 11.825293 14.7665441 22.0209215 14.7665441"></polygon>
                    <polygon id="Path" stroke="#4A89DC" stroke-width="1.7" points="16.9985429 16.7034314 11.9 7.90747549 22.0956286 7.90747549"></polygon>
                </g>
            </g>
            <g id="GRE" transform="translate(136.000000, 22.000000)">
                <g id="Group-3" transform="translate(0.000000, 0.500000)">
                    <path d="M0,11.9512195 L34,11.9512195" id="Stroke-6" stroke="#FFFFFF" stroke-width="22.95"></path>
                    <path d="M0,22.195122 L34,22.195122" id="Stroke-3" stroke="#4A89DC" stroke-width="2.55"></path>
                    <path d="M12.75,1.70731707 L34,1.70731707" id="Stroke-2" stroke="#4A89DC" stroke-width="2.55"></path>
                    <path d="M12.75,6.82926829 L34,6.82926829" id="Stroke-3" stroke="#4A89DC" stroke-width="2.55"></path>
                    <path d="M12.75,11.9512195 L34,11.9512195" id="Stroke-4" stroke="#4A89DC" stroke-width="2.55"></path>
                    <path d="M0,17.0731707 L34,17.0731707" id="Stroke-5" stroke="#4A89DC" stroke-width="2.55"></path>
                    <path d="M0,2.98780488 L5.1,2.98780488" id="Stroke-5" stroke="#4A89DC" stroke-width="5.1"></path>
                    <path d="M7.65,2.98780488 L12.75,2.98780488" id="Stroke-6" stroke="#4A89DC" stroke-width="5.1"></path>
                    <path d="M0,10.6707317 L5.1,10.6707317" id="Stroke-6" stroke="#4A89DC" stroke-width="5.1"></path>
                    <path d="M7.65,10.6707317 L12.75,10.6707317" id="Stroke-7" stroke="#4A89DC" stroke-width="5.1"></path>
                </g>
            </g>
            <g id="LAT" transform="translate(135.000000, 46.000000)">
                <path d="M1,18.5 L35,18.5" id="Stroke-3" stroke="#B42B39" stroke-width="9"></path>
                <path d="M1,11.5 L35,11.5" id="Stroke-1" stroke="#FFFFFF" stroke-width="5"></path>
                <path d="M1,4.5 L35,4.5" id="Stroke-2" stroke="#B42B39" stroke-width="9"></path>
            </g>
            <g id="UKR" transform="translate(-1.000000, 92.000000)">
                <path d="M1,17.4852941 L35,17.4852941" id="Stroke-3" stroke="#FACA5A" stroke-width="11.05"></path>
                <path d="M1,5.97058824 L35,5.97058824" id="Stroke-2" stroke="#4A89DC" stroke-width="11.9"></path>
            </g>
            <g id="POL" transform="translate(34.000000, 69.000000)">
                <path d="M0,17.4852941 L34,17.4852941" id="Stroke-3" stroke="#DC505E" stroke-width="11.05"></path>
                <path d="M0,5.97058824 L34,5.97058824" id="Stroke-2" stroke="#FFFFFF" stroke-width="11.9"></path>
            </g>
            <g id="CZE" transform="translate(272.000000, 0.000000)">
                <path d="M0,17.4852941 L34,17.4852941" id="Stroke-3" stroke="#DC505E" stroke-width="11.05"></path>
                <path d="M0,5.97058824 L34,5.97058824" id="Stroke-2" stroke="#FFFFFF" stroke-width="11.9"></path>
                <polyline id="arrow" fill="#434F91" points="-0.0033203125 0.426470588 12.1397797 11.9773655 -0.0033203125 22.6432731 -0.0033203125 0.426470588"></polyline>
            </g>
            <g id="PHI" transform="translate(0.000000, 69.000000)">
                <path d="M0,17.4852941 L34,17.4852941" id="Stroke-3" stroke="#DC505E" stroke-width="11.05"></path>
                <path d="M0,5.97058824 L34,5.97058824" id="Stroke-2" stroke="#434F91" stroke-width="11.9"></path>
                <polyline id="arrow" fill="#FFFFFF" points="-0.0033203125 0.426470588 12.1397797 11.9773655 -0.0033203125 22.6432731 -0.0033203125 0.426470588"></polyline>
                <ellipse id="Oval-1" fill="#FACA5A" cx="4.24667969" cy="11.9411765" rx="2.55" ry="2.55882353"></ellipse>
            </g>
            <g id="IDN" transform="translate(271.000000, 23.000000)">
                <path d="M1,17 L35,17" id="Stroke-3" stroke="#FFFFFF" stroke-width="11"></path>
                <path d="M1,6 L35,6" id="Stroke-2" stroke="#DC505E" stroke-width="12"></path>
            </g>
            <g id="ITA" transform="translate(34.000000, 46.000000)">
                <path d="M5.525,0 L5.525,23" id="Stroke-1" stroke="#509F5D" stroke-width="11.05"></path>
                <path d="M28.475,0 L28.475,23" id="Stroke-2" stroke="#DC505E" stroke-width="11.05"></path>
                <path d="M17,0 L17,23" id="Stroke-3" stroke="#FFFFFF" stroke-width="11.9"></path>
            </g>
            <g id="IRE" transform="translate(68.000000, 92.000000)">
                <path d="M5.525,0 L5.525,23" id="Stroke-1" stroke="#509F5D" stroke-width="11.05"></path>
                <path d="M17,0 L17,23" id="Stroke-3" stroke="#FFFFFF" stroke-width="11.9"></path>
                <path d="M28.475,0 L28.475,23" id="Stroke-2" stroke="#DC9551" stroke-width="11.05"></path>
            </g>
            <g id="ROM" transform="translate(67.000000, 69.000000)">
                <path d="M29.475,0 L29.475,23" id="Stroke-2" stroke="#DC505E" stroke-width="11.05"></path>
                <path d="M18,0 L18,23" id="Stroke-3" stroke="#FACA5A" stroke-width="11.9"></path>
                <path d="M6.525,0 L6.525,23" id="Stroke-1" stroke="#4A89DC" stroke-width="11.05"></path>
            </g>
            <g id="BAN" transform="translate(68.000000, 0.000000)">
                <path d="M0,11.5 L34,11.5" id="Stroke-1" stroke="#509F5D" stroke-width="23"></path>
                <path d="M16.5,5.5 C19.8133576,5.5 22.5,8.1866424 22.5,11.5 C22.5,14.8133576 19.8133576,17.5 16.5,17.5 C13.1866424,17.5 10.5,14.8133576 10.5,11.5 C10.5,8.1866424 13.1866424,5.5 16.5,5.5" id="Fill-2" fill="#DC505E"></path>
            </g>
            <g id="KOR" transform="translate(102.000000, 46.000000)">
                <path d="M0,11.5 L34,11.5" id="Stroke-2" stroke="#FFFFFF" stroke-width="22.95"></path>
                <path d="M22.92875,9.81588889 L22.92875,9.81588889 C23.0282,10.4232593 22.40855,8.55514815 20.64395,8.23996296 C18.8802,7.92392593 17.1717,8.98448148 16.82915,10.608963 C16.5223,12.0639259 14.9923,13.0145926 13.41215,12.7317778 C11.832,12.448963 10.8001,11.04 11.10695,9.58503704 C11.73935,6.59077778 14.88775,4.63492593 18.1407,5.21674074 C20.7009,5.67503704 22.56155,7.56955556 22.92875,9.81588889 L22.92875,9.81588889 L22.92875,9.81588889 Z" id="Shape" fill="#ED5565"></path>
                <path d="M11.07125,12.3322593 L11.07125,12.3322593 C10.9718,11.7248889 11.59145,13.593 13.35605,13.9081852 C15.1198,14.2242222 16.8283,13.1636667 17.17085,11.5391852 C17.4777,10.0842222 19.0077,9.13355556 20.58785,9.41637037 C22.168,9.69918519 23.1999,11.1081481 22.89305,12.5631111 C22.26065,15.5573704 19.11225,17.5132222 15.8593,16.9314074 C13.2991,16.4731111 11.43845,14.5785926 11.07125,12.3322593 L11.07125,12.3322593 L11.07125,12.3322593 Z" id="Shape" fill="#4758A9"></path>
                <path d="M24.2505,3.4942963 L25.1056,3.02833333 L27.88,8.19566667 L27.0249,8.66162963 L24.2505,3.4942963 L24.2505,3.4942963 Z M25.3147,9.59355556 L22.5403,4.42537037 L23.3954,3.95940741 L26.1698,9.12759259 L25.3147,9.59355556 L25.3147,9.59355556 Z M7.49955,13.9908148 L8.364,13.5308148 L11.169,18.6325556 L10.30455,19.0925556 L7.49955,13.9908148 L7.49955,13.9908148 Z M7.48085,8.79111111 L10.25525,3.79159259 L11.11035,4.24222222 L8.33595,9.24174074 L7.48085,8.79111111 L7.48085,8.79111111 Z M5.77065,7.88985185 L8.54505,2.89033333 L9.40015,3.34096296 L6.62575,8.34048148 L5.77065,7.88985185 L5.77065,7.88985185 Z M9.4401,19.5525556 L8.57565,20.0125556 L5.77065,14.909963 L6.6351,14.449963 L9.4401,19.5525556 L9.4401,19.5525556 Z M26.3942,13.6466667 L23.5892,18.9204815 L22.72475,18.4451481 L25.52975,13.1721852 L26.3942,13.6466667 L26.3942,13.6466667 Z M28.1231,14.5973333 L25.3181,19.8711481 L24.45365,19.3958148 L27.25865,14.122 L28.1231,14.5973333 L28.1231,14.5973333 Z" id="Shape" fill="#434A54"></path>
            </g>
            <g id="JPN" transform="translate(68.000000, 46.000000)">
                <path d="M0,11.5 L34,11.5" id="Stroke-1" stroke="#FFFFFF" stroke-width="22.95"></path>
                <path d="M16.5,5.5 C19.8133576,5.5 22.5,8.1866424 22.5,11.5 C22.5,14.8133576 19.8133576,17.5 16.5,17.5 C13.1866424,17.5 10.5,14.8133576 10.5,11.5 C10.5,8.1866424 13.1866424,5.5 16.5,5.5" id="Fill-2" fill="#DC505E"></path>
            </g>
            <g id="USA" transform="translate(34.000000, 92.000000)">
                <g id="Reds" fill="#CC4B57">
                    <polygon id="Fill-8" points="16 0 34 0 34 2 16 2"></polygon>
                    <polygon id="Fill-9" points="16 4 34 4 34 6 16 6"></polygon>
                    <polygon id="Fill-10" points="16 8 34.0433083 8 34.0433083 10 16 10"></polygon>
                    <polygon id="Fill-11" points="16 12 34.0433083 12 34.0433083 14 16 14"></polygon>
                    <polygon id="Fill-13" points="0 16 34 16 34 18 0 18"></polygon>
                    <polygon id="Fill-14" points="0 20 34 20 34 22 0 22"></polygon>
                </g>
                <g id="Whites" transform="translate(0.000000, 2.000000)" fill="#FFFFFF">
                    <polygon id="Fill-8" points="16 0 34 0 34 2 16 2"></polygon>
                    <polygon id="Fill-9" points="16 4 34 4 34 6 16 6"></polygon>
                    <polygon id="Fill-10" points="16 8 34.0433083 8 34.0433083 10 16 10"></polygon>
                    <polygon id="Fill-11" points="0 12 34.0818045 12 34.0818045 14 0 14"></polygon>
                    <polygon id="Fill-12" points="0 16 34 16 34 18 0 18"></polygon>
                    <polygon id="Fill-13" points="0 20 34 20 34 21 0 21"></polygon>
                </g>
                <polygon id="Blue" fill="#3C497D" points="0 0 16 0 16 14 0 14"></polygon>
                <g id="Stars" transform="translate(1.000000, 1.000000)" fill="#FFFFFF">
                    <circle id="Oval-2" cx="1" cy="1" r="1"></circle>
                    <circle id="Oval-2-Copy" cx="5" cy="1" r="1"></circle>
                    <circle id="Oval-2-Copy-2" cx="9" cy="1" r="1"></circle>
                    <circle id="Oval-2-Copy-3" cx="13" cy="1" r="1"></circle>
                    <circle id="Oval-2-Copy-6" cx="3" cy="3" r="1"></circle>
                    <circle id="Oval-2-Copy-5" cx="7" cy="3" r="1"></circle>
                    <circle id="Oval-2-Copy-4" cx="11" cy="3" r="1"></circle>
                    <circle id="Oval-2-Copy-13" cx="1" cy="5" r="1"></circle>
                    <circle id="Oval-2-Copy-12" cx="5" cy="5" r="1"></circle>
                    <circle id="Oval-2-Copy-11" cx="9" cy="5" r="1"></circle>
                    <circle id="Oval-2-Copy-10" cx="13" cy="5" r="1"></circle>
                    <circle id="Oval-2-Copy-9" cx="3" cy="7" r="1"></circle>
                    <circle id="Oval-2-Copy-8" cx="7" cy="7" r="1"></circle>
                    <circle id="Oval-2-Copy-7" cx="11" cy="7" r="1"></circle>
                    <circle id="Oval-2-Copy-20" cx="1" cy="9" r="1"></circle>
                    <circle id="Oval-2-Copy-19" cx="5" cy="9" r="1"></circle>
                    <circle id="Oval-2-Copy-18" cx="9" cy="9" r="1"></circle>
                    <circle id="Oval-2-Copy-17" cx="13" cy="9" r="1"></circle>
                    <circle id="Oval-2-Copy-16" cx="3" cy="11" r="1"></circle>
                    <circle id="Oval-2-Copy-15" cx="7" cy="11" r="1"></circle>
                    <circle id="Oval-2-Copy-14" cx="11" cy="11" r="1"></circle>
                </g>
            </g>
            <g id="MLY" transform="translate(204.000000, 46.000000)">
                <g id="Reds" fill="#CC4B57">
                    <polygon id="Fill-8" points="13.6 0 34.0221554 0 34.0221554 1.76923077 13.6 1.76923077"></polygon>
                    <polygon id="Fill-9" points="13.6 3.53846154 34.0221554 3.53846154 34.0221554 5.30769231 13.6 5.30769231"></polygon>
                    <polygon id="Fill-10" points="13.5903503 7.07692308 34.030314 7.07692308 34.030314 8.84615385 13.5903503 8.84615385"></polygon>
                    <polygon id="Fill-11" points="13.5903503 10.6153846 34.030314 10.6153846 34.030314 12.3846154 13.5903503 12.3846154"></polygon>
                    <polygon id="Fill-12" points="0 14.1538462 34 14.1538462 34 15.9230769 0 15.9230769"></polygon>
                    <polygon id="Fill-13" points="0 17.6923077 34 17.6923077 34 19.4615385 0 19.4615385"></polygon>
                    <polygon id="Fill-14" points="0 21.2307692 34 21.2307692 34 23 0 23"></polygon>
                </g>
                <g id="Whites" transform="translate(0.000000, 1.769231)" fill="#FFFFFF">
                    <polygon id="Fill-8" points="16.9812531 0 34.0221554 0 34.0221554 1.76923077 16.9812531 1.76923077"></polygon>
                    <polygon id="Fill-9" points="16.9812531 3.53846154 34.0221554 3.53846154 34.0221554 5.30769231 16.9812531 5.30769231"></polygon>
                    <polygon id="Fill-10" points="16.9812531 7.07692308 34.0221554 7.07692308 34.0221554 8.84615385 16.9812531 8.84615385"></polygon>
                    <polygon id="Fill-11" points="0 10.6153846 34.0630125 10.6153846 34.0630125 12.3846154 0 12.3846154"></polygon>
                    <polygon id="Fill-12" points="0 14.1538462 34 14.1538462 34 15.9230769 0 15.9230769"></polygon>
                    <polygon id="Fill-13" points="0 17.6923077 34 17.6923077 34 19.4615385 0 19.4615385"></polygon>
                </g>
                <polygon id="Blue" fill="#3C497D" points="0 0 13.6 0 13.6 14.1538462 0 14.1538462"></polygon>
                <path d="M8.61655682,3.63040679 C7.88766152,3.01947998 6.9610988,2.65384615 5.95290527,2.65384615 C3.60520527,2.65384615 1.70290527,4.63361538 1.70290527,7.07692308 C1.70290527,9.52023077 3.60520527,11.5 5.95290527,11.5 C6.9610988,11.5 7.88766152,11.1343662 8.61655682,10.5234394 C8.30602077,10.5835866 7.98244836,10.6153846 7.65,10.6153846 C5.3023,10.6153846 3.4,9.03192308 3.4,7.07692308 C3.4,5.12192308 5.3023,3.53846154 7.65,3.53846154 C7.98244836,3.53846154 8.30602077,3.57025954 8.61655682,3.63040679 Z" id="Fill-1" fill="#FFCE54"></path>
                <path d="M9.35,4.42307692 C10.7576,4.42307692 11.9,5.612 11.9,7.07692308 C11.9,8.54184615 10.7576,9.73076923 9.35,9.73076923 C7.9407,9.73076923 6.8,8.54184615 6.8,7.07692308 C6.8,5.612 7.9407,4.42307692 9.35,4.42307692" id="Fill-3" fill="#FFCE54"></path>
            </g>
            <g id="SAU" transform="translate(136.000000, 69.000000)">
                <path d="M0,11.5 L34,11.5" id="Stroke-2" stroke="#509F5D" stroke-width="22.95"></path>
                <path d="M8.0087,15.4977407 L25.59265,15.4977407 L26.31005,15.4977407 C26.31005,15.4977407 25.98875,16.2754815 25.59265,16.2754815 L8.7261,16.2754815 C8.33,16.2754815 8.0087,15.4977407 8.0087,15.4977407 L8.0087,15.4977407 L8.0087,15.4977407 Z" id="Shape" fill="#FFFFFF"></path>
                <path d="M22.72135,14.3298519 L23.4396,14.3298519 L23.4396,17.4433704 L22.72135,17.4433704 L22.72135,14.3298519 L22.72135,14.3298519 Z" id="Shape" fill="#FFFFFF"></path>
                <path d="M26.0304,7.43922222 C26.0134,7.47159259 26.0576,7.72203704 26.0712,7.83107407 C26.28285,8.94955556 26.333,10.1038148 26.30155,11.6499259 C26.29645,11.914 26.18765,12.3441852 26.09585,12.5026296 C25.75245,13.069963 25.2552,13.1082963 24.83445,13.161963 C24.5905,13.1542963 24.5905,12.9345185 24.8931,12.7428519 C24.9883,12.6602222 25.27985,12.5537407 25.4167,12.4412963 C25.55355,12.3297037 25.69975,12.0988519 25.8315,11.9131481 C25.891,11.7385185 25.89525,11.6635556 25.9148,11.5238519 C25.8808,10.0586667 25.7142,8.81581481 25.4915,7.16237037 C25.4541,6.89914815 25.4864,6.601 25.57905,6.43488889 C25.66745,6.22959259 25.6853,6.30625926 25.73885,6.42125926 C25.8893,6.67766667 26.316,7.27907407 26.24375,7.35914815 C26.1953,7.44774074 26.0576,7.36255556 26.0304,7.43922222 L26.0304,7.43922222 Z M25.1753,7.52866667 C25.13875,7.37022222 24.90925,7.08059259 24.93305,6.99540741 C24.8863,6.81651852 25.0308,6.73814815 25.13365,6.76966667 C25.30195,6.86081481 25.3997,7.37362963 25.38185,7.5192963 C25.34785,7.78677778 25.25945,8.07555556 25.19485,8.03807407 C25.12515,8.00485185 25.2093,7.64196296 25.1753,7.52866667 L25.1753,7.52866667 Z M24.74605,7.54314815 C24.7299,7.57722222 24.78175,7.92392593 24.79875,8.03211111 C24.8591,8.30981481 24.84975,8.65992593 24.8897,8.89333333 C24.9305,9.12759259 24.87695,9.30392593 24.9628,9.52285185 C24.98065,9.56118519 24.9883,9.60718519 25.0019,9.64807407 C25.21865,9.96751852 25.53145,10.4164444 25.7652,10.8474815 C25.84595,10.9556667 25.8876,11.7410741 25.76095,11.8151852 C25.5578,11.4148148 25.3402,11.0374444 25.11835,10.6702963 C25.11835,10.8525926 25.1175,11.0468148 25.1192,11.2606296 C25.1226,11.5238519 24.6619,12.080963 24.6772,11.9412593 C24.6976,11.2401852 24.66105,10.5535926 24.5973,9.86359259 C24.4545,9.64977778 24.30745,9.45044444 24.1621,9.2442963 C24.18335,10.0722963 24.23775,11.4267407 24.1366,11.724037 C24.04395,11.9727778 23.9411,12.098 23.783,12.1951111 C23.5518,12.368037 23.3172,12.3331111 23.12085,12.144 C23.00015,12.0732963 22.90325,11.9898148 22.8208,11.8603333 C22.73665,11.7615185 22.56155,11.724037 22.4927,11.9463704 C22.39325,12.0673333 22.3907,12.6781111 22.1799,12.9166296 C22.09065,13.035037 21.92745,13.1406667 21.71835,12.972 C21.488,12.8442222 21.3928,12.6781111 21.27465,12.4191481 C21.1939,12.2615556 21.0358,11.5298148 21.3945,11.0877037 C21.44465,10.8670741 21.20835,11.724037 21.6104,12.3254444 C21.76935,12.494963 21.91215,12.42 21.9623,12.3322593 C22.15865,11.9378519 22.28955,11.3671111 22.57855,11.0612963 C22.6831,10.9556667 22.78,10.9139259 22.92705,11.0612963 C22.92705,11.0612963 23.21435,11.5553704 23.2866,11.5868889 C23.3852,11.689963 23.5331,11.5962593 23.5331,11.5962593 C23.62915,11.5511111 23.73285,11.2333704 23.74135,10.8696296 C23.68015,10.0126667 23.664,9.31074074 23.6028,8.45377778 C23.31805,8.06533333 23.03245,7.68455556 22.75365,7.30888889 C22.678,7.20581481 22.58875,7.02948148 22.5896,6.93662963 C22.57685,6.76796296 22.59045,6.53711111 22.6032,6.33777778 C22.63635,6.11033333 22.69585,6.24407407 22.79445,6.31392593 C22.9908,6.48003704 23.05795,6.56692593 23.28745,6.84292593 C23.55945,7.21433333 22.95,6.81140741 23.36735,7.2927037 C23.3801,7.30633333 23.4005,7.33274074 23.42685,7.36596296 C23.42005,7.32422222 23.41325,7.28248148 23.40645,7.24074074 C23.392,7.00648148 23.35375,6.76711111 23.3393,6.532 C23.3376,6.39911111 23.40135,6.29518519 23.46085,6.23811111 C23.5229,6.13674074 23.5739,6.18359259 23.613,6.22618519 C23.77705,6.5567037 23.94025,6.88722222 24.10345,7.21688889 C24.13575,7.30803704 24.08815,7.406 24.03545,7.39577778 C24.00315,7.37959259 23.9955,7.37703704 23.94365,7.32848148 C23.89435,7.32166667 23.9054,7.337 23.90965,7.38811111 C23.9309,7.51588889 23.95725,8.04914815 23.95725,8.06107407 C23.95725,8.06277778 23.9598,8.08066667 23.9649,8.10537037 C24.14255,8.35751852 24.3304,8.625 24.48255,8.84818519 C24.40265,8.24762963 24.30915,7.64111111 24.19865,7.00818519 C24.1536,6.74666667 24.11025,6.47151852 24.22755,6.35140741 C24.3542,6.16825926 24.45705,6.12907407 24.514,6.24237037 C24.67125,6.49366667 24.9815,7.37362963 24.91265,7.45625926 C24.8659,7.5457037 24.7707,7.46648148 24.74605,7.54314815 L24.74605,7.54314815 Z M22.4315,10.2597037 C22.3839,10.2971852 22.33715,9.97177778 22.4315,9.87977778 C22.4553,9.85422222 23.4073,9.11225926 23.4073,9.11225926 C23.5042,9.07562963 23.4838,9.49474074 23.43875,9.49218519 C23.45745,9.57566667 22.4995,10.2886667 22.4315,10.2597037 L22.4315,10.2597037 Z M23.10725,10.1165926 C23.05965,9.9377037 23.19735,9.8422963 23.3002,9.87381481 C23.46765,9.96581481 23.5348,10.5033333 23.5161,10.6498519 C23.52205,10.9343704 23.3546,11.1626667 23.29,11.1251852 C23.22115,11.0911111 23.2968,10.7716667 23.2628,10.6592222 C23.22625,10.5007778 23.08345,10.2026296 23.10725,10.1165926 L23.10725,10.1165926 Z M22.6916,8.20503704 C22.69925,8.12411111 22.661,8.07555556 22.661,7.98611111 C22.7052,7.74503704 22.9568,7.70755556 23.052,7.86174074 C23.1217,7.95544444 23.1472,8.15477778 23.1574,8.29022222 C23.15655,8.35837037 23.05455,8.2782963 22.99675,8.29448148 C22.93895,8.31066667 22.92535,8.38392593 22.92025,8.45037037 C22.91005,8.62585185 22.89135,8.90696296 22.88795,9.11907407 C22.69755,9.11481481 22.29975,8.71359259 22.18415,8.47848148 C22.13995,8.34388889 22.168,8.2127037 22.20625,8.13518519 C22.2768,8.08492593 22.3856,8.0287037 22.46635,8.08322222 C22.46635,8.08322222 22.54965,8.21185185 22.5335,8.22803704 C22.6372,8.28255556 22.6814,8.25103704 22.6916,8.20503704 L22.6916,8.20503704 Z M21.60785,12.0451852 C21.65715,10.401963 21.34775,8.96574074 21.046,7.23903704 C21.00095,6.97751852 21.04175,6.63337037 21.15905,6.21255556 C21.2857,6.02940741 21.2619,6.12907407 21.31885,6.24237037 C21.4132,6.50474074 21.7124,6.946 21.8331,7.24840741 C21.87135,7.48862963 21.52285,7.13085185 21.5934,7.54314815 C21.6512,7.76207407 21.93765,9.96325926 21.9487,10.2511852 C21.9606,10.539963 22.02605,10.838963 21.98695,11.3296296 C21.9164,11.6865556 21.7515,12.046037 21.60785,12.0451852 L21.60785,12.0451852 Z M20.98905,11.356037 C20.98395,11.6201111 20.8233,11.96 20.7315,12.1184444 C20.3881,12.8007778 20.0175,13.0597407 19.59675,13.1134074 C19.34515,13.1134074 19.15135,12.8195185 19.20745,12.7513704 C19.72595,12.5367037 20.2028,12.0707407 20.53345,11.6925185 C20.6227,11.6073333 20.6431,11.3935185 20.63205,11.2461481 C20.50115,9.72303704 20.4391,8.39074074 20.2385,6.86848148 C20.23085,6.59674074 20.29375,6.30711111 20.3864,6.14014815 C20.47395,5.9357037 20.49265,6.01237037 20.5462,6.12651852 C20.6958,6.38377778 20.95845,7.04992593 20.88705,7.13085185 C20.83775,7.21859259 20.7451,7.18281481 20.7179,7.21859259 C20.70175,7.25096296 20.69325,7.37874074 20.70685,7.48777778 C20.9185,8.60625926 21.02135,9.80907407 20.98905,11.356037 L20.98905,11.356037 Z M19.57465,8.18288889 C19.4208,8.11303704 19.4259,7.86174074 19.4344,7.85151852 C19.4276,7.79785185 19.43525,7.65814815 19.5483,7.6572963 C19.5687,7.66325926 19.58655,7.67092593 19.59845,7.68711111 C19.6061,7.705 19.6112,7.7492963 19.6112,7.77655556 C19.6112,7.80296296 19.62735,7.80892593 19.6401,7.82425926 C19.6622,7.83959259 19.65625,7.83618519 19.6826,7.83618519 C19.70725,7.83107407 19.71915,7.8182963 19.72255,7.78251852 C19.72255,7.7527037 19.7319,7.7262963 19.7387,7.69903704 C19.754,7.67262963 19.754,7.66496296 19.7829,7.66325926 C19.80585,7.66325926 19.81435,7.66581481 19.8271,7.67518519 C19.83985,7.69562963 19.86195,7.7297037 19.86195,7.76207407 C19.8594,7.86259259 19.92485,7.87366667 19.94185,7.85407407 C19.9716,7.83618519 19.9495,7.77740741 19.95715,7.74077778 C19.9835,7.63088889 20.0974,7.60362963 20.1399,7.71096296 C20.14245,7.74077778 20.1501,7.84896296 20.1501,7.88133333 C20.16625,8.24422222 19.7795,8.29022222 19.57465,8.18288889 L19.57465,8.18288889 Z M19.7336,7.24585185 C19.6571,7.21433333 19.78545,7.00051852 19.71235,6.77562963 C19.67155,6.62911111 19.41995,6.36162963 19.44715,6.28240741 C19.3953,6.11714815 19.5534,6.04474074 19.66645,6.07455556 C19.8509,6.15888889 19.98095,6.56777778 19.93845,6.76711111 C19.9019,7.01414815 19.80415,7.28077778 19.7336,7.24585185 L19.7336,7.24585185 Z M19.1777,7.53377778 C19.1981,7.62833333 19.22785,7.91114815 19.2576,8.26125926 C19.4463,8.56622222 19.60525,8.832 19.65115,8.9257037 C19.7761,9.18040741 20.16965,9.84144444 20.45355,10.511 C20.5292,10.6234444 20.55725,11.4199259 20.42805,11.4872222 C20.0719,10.7077778 19.70725,10.005 19.3324,9.33544444 C19.3443,9.54925926 19.35365,9.752 19.3579,9.91811111 C19.363,10.2281852 19.4344,11.1635185 19.38255,11.6891111 C19.3018,12.069037 19.07145,12.3288519 18.92865,12.3228889 C18.97625,11.4412222 18.9601,10.5365556 18.90825,9.70003704 C18.88105,9.26644444 18.83685,8.82859259 18.7748,8.38051852 C18.4603,7.8642963 18.13985,7.3582963 17.80155,6.86081481 C17.73015,6.75433333 17.5831,6.56948148 17.56015,6.45874074 C17.52955,6.29348148 17.51765,6.18614815 17.5389,5.98681481 C17.58055,5.76192593 17.8143,5.89737037 17.9095,5.97233333 C18.0999,6.14781481 18.11265,6.16059259 18.3413,6.37525926 C18.4025,6.45533333 18.4399,6.51325926 18.4739,6.56777778 C18.47135,6.45618519 18.48155,6.33862963 18.53595,6.20233333 C18.6677,6.00981481 18.66515,6.03707407 18.75015,6.16996296 C19.01535,6.57714815 19.2406,6.8787037 19.3137,7.32422222 C19.34515,7.58318519 19.11905,7.08825926 19.1777,7.53377778 L19.1777,7.53377778 Z M18.5538,7.09677778 C18.5419,7.00818519 18.5232,6.92214815 18.5045,6.83525926 C18.41695,6.84377778 18.2886,6.80033333 18.4433,7.00222222 C18.4654,7.02862963 18.51215,7.09677778 18.56825,7.18025926 C18.5623,7.1512963 18.55975,7.12488889 18.5538,7.09677778 L18.5538,7.09677778 Z M17.5287,6.62911111 C17.50915,6.74325926 17.3859,6.70748148 17.32895,6.69555556 C17.2142,6.71344444 17.33745,6.9937037 17.33745,7.00733333 C17.408,7.19388889 17.40885,7.452 17.5015,7.6377037 C17.59245,7.79103704 17.77605,7.72288889 17.8704,7.70755556 C17.9452,7.6572963 17.94945,7.64196296 18.02425,7.5917037 C18.0812,7.55677778 18.16875,7.5422963 18.16025,7.71351852 C18.16025,7.71351852 18.0149,8.17522222 17.8211,8.27659259 C17.7667,8.29362963 17.74545,8.34218519 17.6528,8.26637037 C17.59925,8.15222222 17.67745,8.08918519 17.6902,8.0252963 C17.6902,7.98951852 17.5576,7.93925926 17.4794,8.05255556 C17.42925,8.13007407 17.4029,8.20077778 17.2941,8.40522222 C17.21335,8.55940741 16.86315,8.61477778 16.69995,8.54322222 C16.50615,8.43503704 16.5189,8.2782963 16.42795,8.188 C16.33445,8.12155556 16.2469,8.12581481 16.1806,8.20162963 C16.1806,8.20162963 15.90775,8.49977778 15.8831,8.52703704 C15.85845,8.5542963 15.5431,8.83540741 15.16145,8.51340741 C14.9906,8.29192593 14.9345,8.13092593 14.943,7.40174074 C14.909,7.32337037 14.858,7.33955556 14.79085,7.49288889 C14.69225,8.04148148 14.53925,8.54151852 14.29955,8.43248148 C13.9672,8.53385185 13.4878,7.48948148 13.7921,6.53455556 C13.9825,6.3267037 13.99355,7.59255556 14.15165,7.75440741 C14.21625,7.87792593 14.30805,7.96566667 14.39475,7.65985185 C14.4891,7.23988889 14.64295,6.71174074 14.95575,6.39911111 C15.02035,6.33777778 15.1725,6.26537037 15.26515,6.46725926 C15.3272,6.59674074 15.3085,7.21092593 15.3,7.58574074 C15.3459,7.82085185 15.4241,7.85918519 15.5244,7.9332963 C15.63235,7.99037037 15.77175,8.02955556 15.90095,7.87707407 C15.9936,7.75951852 16.0089,7.71948148 16.0786,7.60192593 C16.1245,7.18877778 16.0837,6.81737037 15.98255,6.58907407 C15.85845,6.22874074 16.0293,6.05325926 16.06925,5.93825926 C16.21715,5.64437037 16.26135,5.81048148 16.3217,5.9817037 C16.49,6.26622222 16.4237,6.87359259 16.47725,7.30718519 C16.5478,7.88048148 16.6804,7.91796296 16.76285,7.93755556 C16.95835,7.96311111 17.0714,7.76803704 17.0714,7.76803704 C17.1343,7.35488889 16.94135,7.061 16.83595,6.8327037 C16.7161,6.66148148 16.71015,6.50133333 16.73735,6.37185185 C16.75775,6.25855556 16.74245,6.14014815 16.8487,6.03281481 C17,5.89396296 17.1564,5.911 17.26945,6.04644444 C17.3995,6.20488889 17.5899,6.51837037 17.5287,6.62911111 L17.5287,6.62911111 Z M15.42665,6.61207407 C15.41815,6.61207407 15.46575,6.11374074 15.50485,6.01833333 C15.59665,5.76788889 15.73605,5.76107407 15.7726,5.98681481 C15.76495,6.13503704 15.76495,6.28325926 15.6468,6.63337037 C15.56775,6.82333333 15.3952,6.7602963 15.42665,6.61207407 L15.42665,6.61207407 Z M14.5248,6.37014815 C14.5027,6.4612963 14.47975,6.49707407 14.4126,6.55159259 C14.29615,6.61888889 14.2375,6.62655556 14.1797,6.53540741 C14.09895,6.45022222 14.1219,6.45022222 14.12785,6.31648148 C14.13295,6.07881481 14.31485,5.87181481 14.40665,5.80451852 C14.5367,5.72018519 14.5384,5.7942963 14.535,5.89907407 C14.4296,6.05155556 14.31655,6.11544444 14.35565,6.27303704 C14.37775,6.44255556 14.55285,6.21766667 14.5248,6.37014815 L14.5248,6.37014815 Z M13.46485,6.70492593 C13.50565,6.74325926 13.5422,6.77222222 13.58215,6.8097037 C13.58215,6.8097037 12.7993,7.79188889 12.6344,7.85833333 C12.61655,7.88814815 12.07765,7.88985185 12.05555,7.85833333 C11.9544,7.83618519 12.8316,7.18962963 13.15205,6.81481481 C13.22175,6.75092593 13.1172,6.63507407 13.01265,6.58140741 C12.90555,6.4382963 12.937,6.21 13.07385,6.06688889 C13.18095,6.00640741 13.32715,5.97914815 13.49545,6.06177778 C13.5966,6.18614815 13.6595,6.45703704 13.46485,6.58140741 C13.42575,6.6222963 13.4215,6.66403704 13.46485,6.70492593 L13.46485,6.70492593 Z M13.35945,6.42551852 C13.32885,6.35225926 13.26425,6.30455556 13.21495,6.31733333 C13.21495,6.31733333 13.21495,6.31733333 13.2141,6.31733333 C13.1648,6.33011111 13.14865,6.39996296 13.1784,6.47237037 C13.209,6.54562963 13.2736,6.59418519 13.3229,6.58140741 L13.32375,6.58140741 C13.3739,6.56862963 13.3892,6.49877778 13.35945,6.42551852 L13.35945,6.42551852 Z M13.27615,8.20248148 C13.4878,7.99548148 13.4827,8.10537037 13.4827,8.10537037 C13.4827,8.10537037 13.37645,8.49551852 13.1988,8.47081481 C13.1767,8.47081481 13.00925,8.53214815 12.90385,8.36688889 C12.7908,8.18033333 12.86135,7.85918519 13.0424,7.751 C13.14525,7.68455556 13.21325,7.72714815 13.1818,7.82425926 C13.1393,7.92648148 13.1359,8.02785185 13.15375,8.12922222 C13.1767,8.18459259 13.18775,8.22122222 13.27615,8.20248148 L13.27615,8.20248148 Z M12.21195,9.41211111 C12.23235,9.55437037 12.427,9.53562963 12.5341,9.44022222 C12.6939,8.94785185 12.9574,8.98959259 13.02115,9.30648148 C13.0271,9.4087037 13.17245,9.4052963 13.1869,9.32607407 C13.19795,9.24344444 13.20985,9.16081481 13.22175,9.07818519 C13.2328,9.00237037 13.35775,8.96403704 13.52605,8.90696296 C13.51755,9.20511111 13.4827,9.49388889 13.4385,9.77414815 C13.3637,10.0595185 13.00075,10.1361852 12.79505,9.97433333 C12.7347,9.90448148 12.64715,9.93940741 12.6123,9.99307407 C12.53155,10.1012593 12.1635,10.3712963 11.89915,10.0595185 C11.7742,10.056963 12.0411,10.6728519 11.81245,11.5085185 C11.38065,13.0171481 8.72185,13.8017037 8.61135,11.9753333 C8.61135,11.7334074 8.60285,11.6635556 8.6377,11.4131111 C8.67255,10.9616296 8.8893,10.787 8.942,11.241037 C8.9505,11.4701852 8.97685,11.850963 9.06355,12.023037 C9.4146,12.7505185 11.47925,12.5912222 11.543,10.2792963 C11.5226,10.1072222 11.40615,10.212 11.37725,10.3167778 C11.06955,12.8706296 8.31895,12.5469259 9.14175,10.2213704 C9.42055,10.0118148 9.29815,10.9173333 9.4112,11.1558519 C9.59395,11.5366296 9.9331,11.4889259 10.3598,11.2793704 C11.06445,10.8696296 11.0908,10.3363704 11.05595,10.2886667 C11.00325,10.2503333 10.8817,10.4121852 10.7338,10.4786296 C10.5536,10.5297407 10.3479,10.5518889 10.17705,10.327 C10.1218,10.1327778 10.13625,9.8917037 10.17705,9.66937037 C10.2119,9.38911111 10.48985,9.10033333 10.7338,9.09692593 C11.0704,9.085 11.1197,9.37974074 11.3169,9.52625926 C11.4325,9.54159259 11.5226,9.38655556 11.4988,9.269 C11.34835,8.26466667 11.24975,7.4997037 11.0993,6.49622222 C11.06105,6.26025926 11.18005,6.14014815 11.30755,6.09585185 C11.3832,6.07625926 11.4325,6.02855556 11.4903,6.10522222 C11.6093,6.15548148 11.8235,6.86422222 11.9255,7.21007407 C11.83285,7.33785185 11.7402,7.25522222 11.6382,7.25777778 C11.7164,7.91285185 11.7946,8.53811111 11.8728,9.19233333 C12.11675,9.0372963 12.2383,9.08159259 12.21195,9.41211111 L12.21195,9.41211111 Z M10.81285,9.7537037 C10.75675,9.59866667 10.59865,9.65659259 10.5689,9.71111111 C10.5451,9.75796296 10.49155,9.81759259 10.5094,9.87977778 C10.5468,9.936 10.57655,9.94707407 10.63945,9.94962963 C10.69385,9.94962963 10.7695,9.96411111 10.7865,9.92918519 C10.8154,9.89340741 10.8375,9.82185185 10.81285,9.7537037 L10.81285,9.7537037 Z M10.965,7.1317037 C10.94885,7.18537037 11.03725,7.32507407 11.02025,7.37874074 C11.13755,7.67518519 11.16815,7.97162963 11.19025,8.26807407 C11.1843,8.57985185 10.9616,8.77748148 10.591,8.88992593 C10.34705,8.94955556 10.27735,8.79962963 10.1201,8.67866667 C10.0215,8.61988889 9.87955,8.6267037 9.877,8.74851852 C9.7988,8.87203704 9.93225,9.4052963 9.91525,10.0424815 C9.8974,11.1268889 9.53275,11.0127407 9.53275,11.0127407 C9.5081,10.4377407 9.48345,9.86274074 9.4588,9.28774074 C9.3976,9.11992593 9.2922,9.11396296 9.13495,9.12759259 C8.98365,9.0602963 8.789,8.96488889 8.79495,8.64033333 L8.79495,7.64366667 C8.78815,7.51077778 8.7125,7.51077778 8.6717,7.61640741 C8.4541,7.82937037 8.7856,9.00492593 8.1855,8.94188889 C7.6891,8.82688889 7.74095,7.70159259 7.7843,7.06185185 C7.9356,6.87018519 7.99085,7.68796296 8.08095,8.02103704 C8.1855,8.47848148 8.33425,8.303 8.3674,8.05596296 C8.39205,7.83618519 8.44985,7.58914815 8.44985,7.58914815 C8.51785,7.10955556 8.7601,6.82077778 8.8536,6.82674074 C8.97175,6.80374074 9.02955,6.83866667 9.078,6.97751852 C9.1392,7.11637037 9.1579,7.66581481 9.0882,8.01422222 C9.0746,8.28255556 9.3738,8.58922222 9.3602,8.04744444 C9.31175,7.64366667 9.27945,7.29611111 9.1783,6.9017037 C9.1528,6.67596296 9.15365,6.43233333 9.16385,6.18785185 C9.2106,6.06518519 9.34405,5.99959259 9.43415,6.13418519 C9.58205,6.26707407 9.61095,6.79266667 9.6373,7.038 C9.6373,7.23733333 9.6543,7.67774074 9.741,7.97333333 C9.8022,8.11644444 9.8855,8.14455556 9.9263,8.02103704 C9.9756,8.02103704 9.8719,7.88303704 9.80305,7.66411111 C9.70955,7.42559259 9.64835,6.89403704 9.7784,6.64614815 C9.82685,6.56011111 9.9263,6.56011111 10.00025,6.64614815 C10.0742,6.79011111 10.16515,6.85740741 10.19575,7.06781481 C10.2391,7.2202963 10.3003,7.28248148 10.22125,7.83192593 C10.22125,7.88644444 10.51705,8.12837037 10.51705,8.12837037 C10.60715,8.23314815 10.71425,8.26125926 10.8222,8.19396296 C10.84855,8.02103704 10.7882,7.83022222 10.7457,7.71437037 C10.5434,7.41962963 10.4108,7.05844444 10.4431,6.75433333 C10.51365,6.49025926 10.70575,6.46385185 10.83665,6.59077778 C10.9956,6.68533333 11.09335,6.90340741 11.15625,7.1317037 C11.1333,7.23648148 11.03215,7.24585185 10.965,7.1317037 L10.965,7.1317037 Z M10.03425,6.54477778 C9.88125,6.47492593 9.88635,6.22362963 9.89485,6.21340741 C9.88805,6.16059259 9.8957,6.02003704 10.0079,6.02003704 C10.02915,6.02514815 10.047,6.03281481 10.0589,6.04985185 C10.0657,6.06774074 10.07165,6.11203704 10.07165,6.1392963 C10.07165,6.1657037 10.0878,6.17166667 10.10055,6.187 C10.12265,6.20233333 10.1167,6.19892593 10.14305,6.19892593 C10.16685,6.19381481 10.1796,6.18103704 10.183,6.14525926 C10.183,6.11459259 10.19235,6.08818519 10.19915,6.06177778 C10.21445,6.03537037 10.21445,6.02685185 10.2425,6.026 C10.2663,6.026 10.2748,6.02855556 10.28755,6.03792593 C10.3003,6.05751852 10.3224,6.09244444 10.3224,6.12396296 C10.319,6.22448148 10.3853,6.23555556 10.4023,6.21681481 C10.43205,6.19807407 10.4091,6.1392963 10.4176,6.10351852 C10.4431,5.99277778 10.55785,5.96637037 10.60035,6.0737037 C10.6029,6.10266667 10.61055,6.2117037 10.61055,6.24322222 C10.6267,6.60696296 10.23995,6.65211111 10.03425,6.54477778 L10.03425,6.54477778 Z M8.42095,6.91874074 C8.3555,6.89318519 8.4184,6.61633333 8.38695,6.5302963 C8.3521,6.41018519 8.1515,6.18955556 8.17445,6.12396296 C8.1294,5.98766667 8.26625,5.92803704 8.36315,5.95274074 C8.6003,6.03025926 8.6139,6.41188889 8.5969,6.52348148 C8.56545,6.72707407 8.4813,6.94685185 8.42095,6.91874074 L8.42095,6.91874074 Z M9.08905,9.40955556 C9.41035,9.41892593 9.3296,9.54585185 9.4146,9.68555556 C8.88505,9.96922222 8.37335,10.2332963 7.8523,10.5075926 C7.87185,10.1191481 8.5952,9.41892593 9.08905,9.40955556 L9.08905,9.40955556 Z M7.973,11.3986296 C7.9424,11.6218148 7.91605,11.9029259 7.93645,12.2095926 C7.9475,12.3705926 8.00105,12.5690741 8.1311,12.2802963 C8.1923,12.19 8.2416,12.207037 8.3028,12.3126667 C8.34615,12.4625926 8.2654,12.8714815 8.08095,12.9592222 C7.9764,12.9932963 7.8353,12.9455926 7.74945,12.8382593 C7.5871,12.609963 7.6126,11.8441481 7.9067,11.3313333 C7.97215,11.2393333 8.0053,11.1694815 7.973,11.3986296 L7.973,11.3986296 Z M12.4644,10.5672222 C12.42275,10.4079259 12.55705,10.3781111 12.65565,10.401963 C12.8163,10.4692593 12.91065,10.8449259 12.8928,10.9531111 C12.8605,11.149037 12.7755,11.3611481 12.7143,11.3338889 C12.648,11.3091852 12.7279,11.0425556 12.6956,10.9590741 C12.682,10.758037 12.4593,10.6541111 12.4644,10.5672222 L12.4644,10.5672222 Z M16.626,8.86777778 C16.62855,8.89674074 16.6362,9.00577778 16.6362,9.03814815 C16.7552,9.38485185 16.26645,9.44703704 16.06075,9.3397037 C15.9069,9.26985185 15.912,9.0177037 15.9205,9.00833333 C15.91455,8.95466667 15.9222,8.81411111 16.0344,8.81411111 C16.0548,8.82007407 16.07265,8.82774074 16.08455,8.84392593 C16.0922,8.86181481 16.0973,8.90611111 16.0973,8.93337037 C16.0973,8.95977778 16.11345,8.96574074 16.1262,8.98107407 C16.1483,8.99640741 16.14235,8.993 16.1687,8.993 C16.19335,8.98788889 16.20525,8.97511111 16.20865,8.93933333 C16.20865,8.90866667 16.218,8.88225926 16.2248,8.85585185 C16.2401,8.82944444 16.2401,8.82092593 16.269,8.82007407 C16.29195,8.82007407 16.30045,8.82262963 16.3132,8.832 C16.3268,8.85244444 16.34805,8.88651852 16.34805,8.91803704 C16.3455,9.01855556 16.41095,9.02962963 16.42795,9.01088889 C16.4577,8.993 16.4356,8.93337037 16.44325,8.89759259 C16.4696,8.78685185 16.5835,8.76044444 16.626,8.86777778 L16.626,8.86777778 Z M13.3331,10.7759259 C13.3467,10.7776296 13.2957,11.0774815 13.3008,11.2044074 C13.30335,11.3083333 13.294,11.3492222 13.3144,11.321963 C13.3552,11.2938519 14.0811,10.6685926 14.1372,10.4769259 C14.20775,10.367037 14.15845,10.0884815 14.15845,10.0808148 C14.02245,9.69577778 13.8312,9.66340741 13.76065,9.47259259 C13.6969,9.21874074 13.7258,8.92825926 13.8584,8.84818519 C13.9757,8.73062963 14.1151,8.74511111 14.24345,8.87288889 C14.38965,9.01685185 14.52055,9.29881481 14.55795,9.50837037 C14.53245,9.591 14.36585,9.453 14.30805,9.49388889 C14.4109,9.61059259 14.4585,9.74433333 14.49505,9.90788889 C14.59025,10.3474444 14.56135,10.5178148 14.46615,10.8014815 C14.14315,11.5442963 13.73175,11.7657778 13.3705,12.0409259 C13.36115,12.0443333 13.3552,12.2291852 13.49035,12.3297037 C13.5371,12.3833704 13.72495,12.4106296 13.9468,12.3331111 C14.3735,12.0775556 14.8172,11.6073333 15.03735,11.0834444 C15.1011,10.6873333 15.0127,10.2673704 14.91835,9.90107407 C14.77725,9.54244444 14.6098,9.03133333 14.6098,9.02281481 C14.6047,8.79962963 14.62085,8.72211111 14.71095,8.61051852 C14.84865,8.50318519 14.78405,8.42822222 14.99145,8.65481481 C15.2507,9.14037037 15.4173,9.76903704 15.44195,10.3261481 C15.43175,10.4641481 15.52015,10.551037 15.5601,10.5212222 C15.5839,10.1983704 16.2996,9.74944444 16.9558,9.68385185 C17.0561,9.66 17.00765,9.44874074 17.0238,9.34140741 C16.9847,8.94274074 17.22865,8.579 17.57035,8.55003704 C18.03615,8.62585185 18.19085,8.89844444 18.1985,9.3132963 C18.14835,10.1114815 17.39015,10.2469259 16.96345,10.3108148 C16.898,10.3372222 16.8708,10.3704444 16.96345,10.4096296 L18.7493,10.4181481 L18.84025,10.4760741 C18.8513,10.5229259 18.81475,10.4837407 18.7442,10.6115185 C18.67365,10.7384444 18.56995,11.0314815 18.564,11.2274074 C18.0319,11.4148148 17.48195,11.4974444 16.92265,11.5715556 C16.728,11.6788889 16.63195,11.822 16.6719,11.9838519 C16.73735,12.1627407 17.16745,12.3416296 17.16745,12.3501481 C17.24905,12.4063704 17.34595,12.5375556 17.1445,12.8058889 C16.27325,12.7641481 15.59835,12.3578148 15.3646,11.7845185 C15.29405,11.7248889 15.2184,11.7845185 15.1691,11.862037 C14.8291,12.3424815 14.4942,12.7752222 13.9145,13.0043704 C13.56855,13.0989259 13.21495,12.9464444 13.0475,12.6985556 C12.93615,12.5571481 12.9404,12.4012593 12.89875,12.3671852 C12.71175,12.4583333 11.10355,13.2071111 11.30755,12.8578519 C11.69855,12.3987037 12.37685,12.0613704 12.97525,11.609037 C13.0186,11.4565556 13.0968,10.9437407 13.3331,10.7759259 L13.3331,10.7759259 Z M17.4726,9.44107407 C17.5559,9.49388889 17.6443,9.4972963 17.67065,9.44788889 C17.67065,9.44703704 17.67065,9.44703704 17.6715,9.44703704 C17.69785,9.39762963 17.65195,9.315 17.5695,9.26218519 C17.4862,9.20937037 17.3978,9.20681481 17.37145,9.25622222 C17.37145,9.25622222 17.37145,9.25622222 17.37145,9.25707407 C17.3451,9.30562963 17.39015,9.38825926 17.4726,9.44107407 L17.4726,9.44107407 Z M16.0786,11.885037 C16.1789,11.942963 16.3472,12.0877778 16.27665,11.6652593 C16.2775,11.362 16.4611,11.3057778 16.6532,11.2342222 C16.847,11.1592593 16.7433,10.9812222 16.5359,10.9667407 C16.28175,10.9377778 15.9885,10.9335185 15.7896,10.8738889 C15.657,10.8738889 15.5754,10.971 15.5822,11.086 C15.6298,11.569 15.9613,11.7921852 16.0786,11.885037 L16.0786,11.885037 Z M17.91035,11.9327407 C18.0047,11.8807778 18.0965,11.9727778 18.0914,11.9668148 C18.1067,12.0698889 18.0319,12.167 18.05485,12.305 C18.0761,12.3603704 18.09055,12.4217037 18.18405,12.3987037 C18.33535,12.2683704 18.4756,12.2598519 18.6269,12.2513333 C18.7425,12.259 18.74675,12.4736667 18.67365,12.4753704 C18.39485,12.5418148 18.26905,12.6235926 18.07015,12.7070741 C17.9758,12.7675556 17.8942,12.6908889 17.8942,12.6823704 C17.8942,12.6738519 17.83895,12.6235926 17.87805,12.4864444 C17.88485,12.3765556 17.84405,12.3169259 17.76075,12.3288519 C17.69785,12.3663333 17.6426,12.391037 17.61115,12.3118148 C17.5984,12.253037 17.59415,12.2249259 17.63495,12.1908519 C17.70125,12.0852222 17.90525,11.9327407 17.91035,11.9327407 L17.91035,11.9327407 Z M24.29895,12.6840741 C24.3695,12.5903704 24.3423,12.5375556 24.3015,12.4804815 C24.2318,12.4319259 24.16295,12.4387407 24.1587,12.3160741 C24.16975,12.2342963 24.191,12.2044815 24.2522,12.19 C24.36525,12.1797778 24.40605,12.1704074 24.50805,12.19 C24.60835,12.2266296 24.63215,12.2717778 24.6041,12.3390741 C24.57945,12.4072222 24.56585,12.4412963 24.5293,12.4966667 C24.48595,12.5861111 24.57775,12.6014444 24.6058,12.6014444 C24.6653,12.6091111 24.75285,12.581 24.79195,12.6295556 C24.79705,12.6295556 24.81915,12.7326296 24.75285,12.788 C24.75285,12.793963 24.3406,13.087 24.16295,13.0316296 C24.06605,13.0035185 24.08645,12.9140741 24.1179,12.8552963 C24.18505,12.788 24.2318,12.7513704 24.29895,12.6840741 L24.29895,12.6840741 Z" id="Shape" fill="#FFFFFF"></path>
            </g>
            <g id="BRA" transform="translate(102.000000, 0.000000)">
                <path d="M0,11.5 L34,11.5" id="Stroke-2" stroke="#509F5D" stroke-width="22.95"></path>
                <path d="M2.89765,11.5136296 L16.6362,0.889333333 L30.37475,11.5136296 L16.6362,22.1379259 L2.89765,11.5136296 L2.89765,11.5136296 Z" id="Shape" fill="#F6D660"></path>
                <path d="M16.6362,4.19111111 C20.53515,4.19111111 23.69545,7.3582963 23.69545,11.2648889 C23.69545,15.1723333 20.53515,18.3395185 16.6362,18.3395185 C12.73725,18.3395185 9.57695,15.1723333 9.57695,11.2648889 C9.57695,7.3582963 12.73725,4.19111111 16.6362,4.19111111 L16.6362,4.19111111 Z" id="Shape" fill="#4758A9"></path>
                <path d="M22.75195,14.5658148 C22.9517,14.1467037 23.1115,13.7045926 23.2254,13.2454444 C21.77955,9.86444444 18.3991,7.49288889 14.45935,7.49288889 C12.83925,7.49288889 11.31435,7.89411111 9.979,8.60114815 C9.81665,8.94359259 9.6815,9.30137037 9.5761,9.67107407 C10.8766,9.01088889 12.35135,8.63777778 13.9128,8.63777778 C17.92055,8.63777778 21.3486,11.091963 22.75195,14.5658148 L22.75195,14.5658148 Z" id="Shape" fill="#F5F7FA"></path>
            </g>
            <g id="TUR" transform="translate(306.000000, 69.000000)">
                <path d="M0,11.5 L34,11.5" id="Stroke-2" stroke="#DC515E" stroke-width="22.95"></path>
                <path d="M22.79445,10.6098148 L21.76,11.5 C21.4914,11.7325556 21.35455,12.2019259 21.45655,12.5443704 L21.79485,13.679037 C21.8977,14.0214815 21.73025,14.1484074 21.42255,13.9601481 L20.30905,13.2786667 C20.0022,13.0912593 19.51175,13.104037 19.2202,13.3067778 L18.1118,14.0777037 C17.8194,14.2812963 17.64855,14.1645926 17.73185,13.8195926 L18.0404,12.5332963 C18.12285,12.1882963 17.96645,11.7146667 17.6936,11.4812593 L16.7314,10.6600741 C16.4577,10.4266667 16.5274,10.2298889 16.8861,10.2213704 L18.22485,10.1924074 C18.58355,10.1847407 18.9584,9.89937037 19.0587,9.55862963 L19.4701,8.15477778 C19.56955,7.81403704 19.7523,7.80977778 19.8764,8.14540741 L20.38895,9.53562963 C20.51305,9.87125926 20.90745,10.1506667 21.26615,10.1566296 L22.63295,10.1779259 C22.9908,10.1838889 23.0639,10.3781111 22.79445,10.6098148 L22.79445,10.6098148 Z M19.1539,6.302 C19.14455,6.29859259 19.13605,6.29518519 19.12755,6.29177778 L19.1267,6.29177778 C18.8394,6.14866667 18.53595,6.02685185 18.2189,5.93059259 C15.1759,5.00803704 12.0003,6.72451852 11.12735,9.76137037 C10.95905,10.3474444 10.8885,10.9394815 10.9072,11.5204444 C10.91145,12.1014074 11.00495,12.6934444 11.1962,13.2778148 C12.1873,16.3061481 15.4292,17.9945185 18.43565,17.0455556 C18.7493,16.9467407 19.04765,16.8223704 19.32985,16.6767037 L19.32985,16.6775556 C19.33835,16.6732963 19.34685,16.6698889 19.3562,16.6664815 C19.4582,16.634963 19.5687,16.692037 19.60185,16.7951111 C19.6299,16.8794444 19.5976,16.9671852 19.53045,17.0148889 C18.83005,17.6197037 17.99875,18.095037 17.05865,18.3914815 C13.28465,19.5823704 9.214,17.462963 7.96875,13.6594444 C7.73755,12.9532593 7.62025,12.2385556 7.60665,11.5349259 C7.59305,10.8321481 7.6823,10.1165926 7.88545,9.40785185 C8.98195,5.59411111 12.9693,3.43892593 16.79005,4.59744444 C17.7412,4.88537037 18.59035,5.35388889 19.31455,5.95188889 C19.38425,5.99874074 19.4191,6.08733333 19.39445,6.17081481 C19.3647,6.27474074 19.25675,6.33266667 19.1539,6.302 L19.1539,6.302 Z" id="Shape" fill="#FFFFFF"></path>
            </g>
            <g id="PAK" transform="translate(306.000000, 46.000000)">
                <path d="M5.54202836,0 L5.54202836,23" id="Stroke-1" stroke="#FFFFFF" stroke-width="11.05"></path>
                <path d="M22.1481481,0 L22.1481481,23" id="Stroke-2" stroke="#509F5D" stroke-width="23.8"></path>
                <path d="M28.4407778,14.7566296 C28.0438148,15.4807037 27.4960741,16.1391852 26.8018148,16.6852222 C24.0137037,18.877037 19.9461111,18.4306667 17.7176667,15.6885556 C17.3036667,15.1791481 16.9833704,14.6262963 16.7516667,14.0504444 C16.5216667,13.4737407 16.3734444,12.8544444 16.3223333,12.2044815 C16.0505926,8.70422222 18.716037,5.64777778 22.2750741,5.3802963 C23.1618519,5.31385185 24.017963,5.42885185 24.811037,5.69122222 C24.8834444,5.70740741 24.9405185,5.76874074 24.9464815,5.84625926 C24.9541481,5.94081481 24.8817407,6.0242963 24.7854815,6.03111111 C24.776963,6.03196296 24.7684444,6.03196296 24.7599259,6.03111111 L24.7599259,6.03196296 C24.4745556,6.00555556 24.1823704,6.00214815 23.8867778,6.0242963 C21.0526667,6.23725926 18.9298519,8.671 19.1462222,11.4582593 C19.187963,11.9957778 19.314037,12.5077407 19.509963,12.9813704 C19.6948148,13.4601111 19.9571852,13.9184074 20.2996296,14.3400741 C22.074037,16.5233704 25.3144815,16.8794444 27.5344074,15.1331481 C27.7661111,14.9508519 27.9773704,14.7523704 28.1681852,14.541963 L28.1681852,14.541963 C28.1741481,14.536 28.1801111,14.5308889 28.1869259,14.5257778 C28.2618889,14.4661481 28.3726296,14.4780741 28.4331111,14.5521852 C28.4816667,14.6126667 28.4833704,14.6961481 28.4407778,14.7566296 L28.4407778,14.7566296 Z M27.2975926,10.9863333 C27.0556667,11.1933333 26.9304444,11.6098889 27.0207407,11.9122963 L27.3171852,12.9157778 C27.4066296,13.2181852 27.2558519,13.3314815 26.9832593,13.1662222 L25.9908519,12.5690741 C25.7182593,12.4046667 25.2804074,12.4182963 25.018037,12.5997407 L24.0239259,13.288037 C23.7624074,13.4694815 23.6099259,13.3672593 23.6857407,13.0614444 L23.9677037,11.9208148 C24.0435185,11.615 23.9072222,11.1967407 23.6635926,10.9914444 L22.8091852,10.2690741 C22.5655556,10.0646296 22.6285926,9.88914815 22.9488889,9.88062963 L24.1457407,9.84740741 C24.466037,9.83803704 24.8025185,9.58418519 24.8936667,9.28177778 L25.2684815,8.03637037 C25.3596296,7.73396296 25.5231852,7.7297037 25.6313704,8.02614815 L26.0828519,9.25451852 C26.191037,9.55096296 26.5428519,9.7962963 26.8631481,9.79885185 L28.0838519,9.81077778 C28.4041481,9.81418519 28.468037,9.98625926 28.2261111,10.1924074 L27.2975926,10.9863333 L27.2975926,10.9863333 Z" id="Shape" fill="#FFFFFF"></path>
            </g>
            <g id="EMPTY" transform="translate(0.000000, 115.000000)" stroke="#979797" stroke-width="3.24" fill="#FFFFFF">
                <use id="Rectangle-path" mask="url(#mask-2)" xlink:href="#path-1"></use>
            </g>
            <g id="GBR" transform="translate(102.000000, 92.000000)">
                <path d="M0,11.5 L34,11.5" id="Stroke-2" stroke="#425091" stroke-width="23"></path>
                <g id="Stroke-5">
                    <mask id="mask-4" fill="white">
                        <use xlink:href="#path-3"></use>
                    </mask>
                    <g id="Mask"></g>
                    <path d="M17.0770975,11.8096269 L-0.711599593,0.0167678269 L17.0770975,11.8096269 L34.8657946,0.0167678269 L17.0770975,11.8096269 Z M17.0770975,11.8096269 L-0.599059271,23.5278783 L17.0770975,11.8096269 L34.7532543,23.5278783 L17.0770975,11.8096269 Z" stroke="#FFFFFF" stroke-width="4.6" mask="url(#mask-4)"></path>
                </g>
                <g id="Stroke-4">
                    <mask id="mask-6" fill="white">
                        <use xlink:href="#path-5"></use>
                    </mask>
                    <g id="Mask"></g>
                    <path d="M17.0770975,11.8096269 L-0.711599593,0.0167678269 L17.0770975,11.8096269 L34.8657946,0.0167678269 L17.0770975,11.8096269 Z M17.0770975,11.8096269 L-0.599059271,23.5278783 L17.0770975,11.8096269 L34.7532543,23.5278783 L17.0770975,11.8096269 Z" stroke="#DC515E" stroke-width="1.53333333" mask="url(#mask-6)"></path>
                </g>
                <path d="M17,0 L17,23 M0,11.5 L34,11.5" id="Stroke-4" stroke="#FFFFFF" stroke-width="7.66666667"></path>
                <path d="M17,0 L17,23 M0,11.5 L34,11.5" id="Stroke-3" stroke="#DC515E" stroke-width="4.6"></path>
            </g>
            <g id="THA" transform="translate(306.000000, 92.000000)">
                <path d="M0,11.5 L34,11.5" id="Stroke-1" stroke="#DC505E" stroke-width="23"></path>
                <path d="M0,11.5 L34,11.5" id="Stroke-2" stroke="#FFFFFF" stroke-width="16.8666667"></path>
                <path d="M0,11.5 L34,11.5" id="Stroke-3" stroke="#425091" stroke-width="7.66666667"></path>
            </g>
            <g id="POR" transform="translate(136.000000, 92.000000)">
                <path d="M5.7375,0 L5.7375,23" id="Stroke-1" stroke="#509F5D" stroke-width="11.4041667"></path>
                <path d="M22.63125,0 L22.63125,23" id="Stroke-2" stroke="#DC515E" stroke-width="22.8083333"></path>
                <g id="Group-4" transform="translate(6.000000, 6.000000)">
                    <ellipse id="Oval-61" stroke="#FFCE54" stroke-width="1.62916667" fill="#DC515E" cx="6.484375" cy="6" rx="5.578125" ry="5.6"></ellipse>
                    <path d="M6.48188477,3.59369815 C6.48188477,3.59369815 6.38671378,4.48660174 5.85547409,4.48660174 C5.3666683,4.48660174 4.8921814,3.59369815 4.8921814,3.59369815 L4.8921814,6.23122969 C4.90687005,8.02459077 6.48188477,8.82206414 6.48188477,8.82206414 C6.48188477,8.82206414 8.08330002,8.02459077 8.08330002,6.23122969 L8.08330002,3.59369815 C8.08330002,3.59369815 7.61511652,4.48660174 7.12631073,4.48660174 C6.59588708,4.48660174 6.48188477,3.59369815 6.48188477,3.59369815 Z" id="Fill-3" fill="#FFFFFF"></path>
                </g>
            </g>
            <g id="CAN" transform="translate(170.000000, 92.000000)">
                <polygon id="Stroke-1" fill="#DC515E" fill-rule="nonzero" points="0 0 0 23 9 23 9 0"></polygon>
                <polygon id="Stroke-3" fill="#FFFFFF" fill-rule="nonzero" points="9 0 9 23 25 23 25 0"></polygon>
                <polygon id="Stroke-2" fill="#DC515E" fill-rule="nonzero" points="25 0 25 23 34 23 34 0"></polygon>
                <polygon id="Star-2" fill="#DC515E" points="22.8215488 9.31999512 24.4242424 9 23.6228956 10.6 24.4242424 11.4 20.7392406 12.5199951 21.2188552 14.6 17.532655 14.6 18.013468 17.8 16.4135134 17.8 16.8915874 14.6 13.2053872 14.6 13.6862002 12.5199951 10 11.4 10.8013468 10.6 10 9 11.6026936 9.31999512 11.6026936 8.2 14.8080808 9.79628906 15.6094276 8.2 14.8080808 5 16.4135134 6.6 17.2121212 5 18.013468 6.6 19.5489588 5 18.8148148 8.2 19.5489588 9.79628906 22.8215488 8.2"></polygon>
            </g>
            <g id="SBR" transform="translate(204.000000, 92.000000)">
                <polygon id="Stroke-3" fill="#FFFFFF" fill-rule="nonzero" points="0 23.0100002 34 23.0100002 34 15.3400002 0 15.3400002"></polygon>
                <polygon id="Stroke-1" fill="#425191" fill-rule="nonzero" points="0 15.3400002 34 15.3400002 34 7.67000008 0 7.67000008"></polygon>
                <polygon id="Stroke-2" fill="#DC515E" fill-rule="nonzero" points="0 7.67000008 34 7.67000008 34 0 0 0"></polygon>
                <g id="Group" transform="translate(3.000000, 4.500000)">
                    <path d="M5.06559245,0.779031763 C5.06559245,0.779031763 4.62911005,2.13840653 3.02817416,2.13840653 C1.55393104,2.13840653 0.238095238,0.982128417 0.238095238,0.982128417 L0.238095238,7.37831925 C0.282519975,11.4354457 5.06559245,14.0699428 5.06559245,14.0699428 C5.06559245,14.0699428 9.97796091,11.4354457 9.97796091,7.37831925 L9.97796091,0.779031763 C9.97796091,0.779031763 8.6708494,2.13840653 7.19660628,2.13840653 C5.59567039,2.13840653 5.06559245,0.779031763 5.06559245,0.779031763 Z" id="Fill-1" fill="#DC515E"></path>
                    <ellipse id="Oval-62" fill="#FACA5A" cx="5.0952381" cy="3.41304348" rx="3.23809524" ry="3.02898551"></ellipse>
                    <ellipse id="Oval-63" fill="#FACA5A" cx="5.0952381" cy="8.71376812" rx="3.23809524" ry="3.02898551"></ellipse>
                    <path d="M5.08701637,3.42562354 C5.08701637,3.42562354 4.89365309,4.78653186 3.81430897,4.78653186 C2.82117973,4.78653186 1.85714286,3.42562354 1.85714286,3.42562354 L1.85714286,7.44558566 C1.88698647,10.1789155 5.08701637,11.394375 5.08701637,11.394375 C5.08701637,11.394375 8.34068545,10.1789155 8.34068545,7.44558566 L8.34068545,3.42562354 C8.34068545,3.42562354 7.3894555,4.78653186 6.39632626,4.78653186 C5.31864012,4.78653186 5.08701637,3.42562354 5.08701637,3.42562354 Z" id="Fill-2" fill="#FFFFFF"></path>
                </g>
            </g>
            <g id="BEL-Copy" transform="translate(237.000000, 92.000000)" fill-rule="nonzero">
                <polygon id="Stroke-1" fill="#000000" points="0.922916667 0 0.922916667 23 12.3270833 23 12.3270833 0"></polygon>
                <polygon id="Stroke-2" fill="#DD505E" points="23.6729167 0 23.6729167 23 35.0770833 23 35.0770833 0"></polygon>
                <polygon id="Stroke-3" fill="#FACA5A" points="12.2979167 0 12.2979167 23 23.7020833 23 23.7020833 0"></polygon>
            </g>
            <g id="AUS" transform="translate(272.000000, 91.000000)">
                <polygon id="Stroke-2" fill="#425091" fill-rule="nonzero" points="0 23.8966346 34 23.8966346 34 0.896634615 0 0.896634615"></polygon>
                <g id="Stroke-5" transform="translate(0.000000, 1.000000)">
                    <mask id="mask-8" fill="white">
                        <use xlink:href="#path-7"></use>
                    </mask>
                    <g id="Mask"></g>
                    <path d="M7.36046378,5.67059124 L0.349442176,0.376923085 L7.36046378,5.67059124 L14.3714854,0.376923085 L7.36046378,5.67059124 Z M7.36046378,5.67059124 L14.3271301,10.930769 L7.36046378,5.67059124 L0.393797455,10.930769 L7.36046378,5.67059124 Z" stroke="#FFFFFF" stroke-width="3.25833333" mask="url(#mask-8)"></path>
                </g>
                <path d="M7.28571429,1 L7.28571429,12.3076923 M-2.13162821e-14,6.65384615 L14.5714286,6.65384615" id="Stroke-4" stroke="#FFFFFF" stroke-width="4.8875"></path>
                <g id="Stroke-4" transform="translate(0.000000, 1.000000)">
                    <mask id="mask-10" fill="white">
                        <use xlink:href="#path-9"></use>
                    </mask>
                    <g id="Mask"></g>
                    <path d="M0.349442176,0.376923085 L14.3271301,10.930769" stroke="#DC515E" stroke-width="1.62916667" mask="url(#mask-10)"></path>
                    <path d="M14.3714854,0.376923085 L0.393797455,10.930769" id="Stroke-5" stroke="#DC515E" stroke-width="1.62916667" mask="url(#mask-10)"></path>
                </g>
                <path d="M7.28571429,1 L7.28571429,12.3076923 M0,6.65384615 L14.5714286,6.65384615" id="Stroke-3" stroke="#DC515E" stroke-width="1.62916667"></path>
                <polygon id="Star-3" fill="#FFFFFF" points="21.047619 6.65384615 20.0959667 7.15302745 20.2777162 6.0957445 19.5078133 5.34697255 20.5717929 5.19271704 21.047619 4.23076923 21.5234452 5.19271704 22.5874248 5.34697255 21.8175219 6.0957445 21.9992714 7.15302745"></polygon>
                <polygon id="Star-4" fill="#FFFFFF" points="26.7142857 9.48076923 25.2868072 10.2295412 25.5594314 8.64361674 24.404577 7.52045882 26.0005465 7.28907556 26.7142857 5.84615385 27.4280249 7.28907556 29.0239944 7.52045882 27.8691401 8.64361674 28.1417642 10.2295412"></polygon>
                <polygon id="Star-4" fill="#FFFFFF" points="25.9047619 14.7307692 24.9531096 15.2299505 25.134859 14.1726676 24.3649561 13.4238956 25.4289357 13.2696401 25.9047619 12.3076923 26.3805881 13.2696401 27.4445677 13.4238956 26.6746648 14.1726676 26.8564142 15.2299505"></polygon>
                <polygon id="Star-5" fill="#FFFFFF" points="18.6190476 12.7115385 17.1915691 13.4603104 17.4641933 11.874386 16.3093389 10.7512281 17.9053084 10.5198448 18.6190476 9.07692308 19.3327869 10.5198448 20.9287563 10.7512281 19.773902 11.874386 20.0465261 13.4603104"></polygon>
                <polygon id="Star-6" fill="#FFFFFF" points="6.47619048 20.3846154 4.57288585 21.382978 4.93638469 19.2684121 3.3965789 17.7708682 5.52453816 17.4623572 6.47619048 15.5384615 7.42784279 17.4623572 9.55580205 17.7708682 8.01599626 19.2684121 8.3794951 21.382978"></polygon>
            </g>
        </g>
    </g>
</svg>