<svg width="34" height="28" viewBox="0 0 34 28" xmlns="http://www.w3.org/2000/svg"><title>Group</title><g fill-rule="evenodd"><path d="M3.224 12.139a.581.581 0 0 0-.469.224.487.487 0 0 0-.085.425l3.442 12.521c.064.232.293.395.555.395h21.188c.262 0 .49-.162.552-.394l3.445-12.522a.484.484 0 0 0-.086-.425.577.577 0 0 0-.468-.224H3.224zm24.631 15.652H6.667c-1.199 0-2.254-.794-2.566-1.93L.658 13.341a2.553 2.553 0 0 1 .437-2.242 2.657 2.657 0 0 1 2.129-1.047h28.074c.846 0 1.621.381 2.127 1.046.494.646.653 1.464.439 2.243L30.42 25.862c-.31 1.135-1.365 1.929-2.565 1.929z"/><path d="M6.826 12.139a1.044 1.044 0 0 1-.824-1.684l7.304-9.391a1.042 1.042 0 1 1 1.648 1.28l-7.305 9.391a1.039 1.039 0 0 1-.823.404m20.871 0c-.311 0-.619-.139-.824-.403l-7.305-9.391a1.042 1.042 0 1 1 1.647-1.28l7.304 9.391a1.042 1.042 0 0 1-.822 1.683"/></g></svg>