<svg width="340" height="138" viewBox="0 0 340 138" xmlns="http://www.w3.org/2000/svg" xmlns:xlink="http://www.w3.org/1999/xlink"><title>34x23</title><defs><path id="a" d="M0 0h34v23H0z"/><mask id="b" x="0" y="0" width="34" height="23" fill="#fff"><use xlink:href="#a"/></mask><path id="c" d="M0 0h34v23H0z"/><path id="e" d="M0 0h34v23H0z"/><path id="g" d="M0 0h14.677v11.308H0z"/><path id="i" d="M0 0h14.677v11.308H0z"/></defs><g fill="none" fill-rule="evenodd"><path d="M39.525 23v23" stroke="#425091" stroke-width="11.05"/><path d="M62.475 23v23" stroke="#DD505E" stroke-width="11.05"/><path d="M51 23v23" stroke="#FFF" stroke-width="11.9"/><path d="M204 34.5h34" stroke="#425091" stroke-width="22.95"/><path d="M214.5 23v23M204 34.5h34" stroke="#FFF" stroke-width="9"/><path d="M214.5 23v23M204 34.5h34" stroke="#DD505E" stroke-width="5"/><path d="M272 57.5h34" stroke="#DC505E" stroke-width="22.95"/><path d="M282.5 46v23M272 57.5h34" stroke="#FFF" stroke-width="9"/><path d="M282.5 46v23M272 57.5h34" stroke="#425091" stroke-width="5"/><path d="M238 11.5h34" stroke="#DC505E" stroke-width="23"/><path d="M248.5 0v23M238 11.5h34" stroke="#FFF" stroke-width="5"/><path d="M272 80.5h34" stroke="#4A89DC" stroke-width="22.95"/><path d="M282.5 69v23M272 80.5h34" stroke="#FFCE54" stroke-width="5"/><path d="M0 34.5h34" stroke="#FFF" stroke-width="22.95"/><path d="M10.5 23v23M0 34.5h34" stroke="#4A89DC" stroke-width="5"/><path d="M68 34.5h34" stroke="#FFF" stroke-width="22.95"/><path d="M84.5 23v23M68 34.5h34" stroke="#DC515E" stroke-width="5"/><path d="M75 24v6m-3-3h6m15.993-3v6M91 27h5.987M74.993 39v6M72 42h5.987m16.006-3v6M91 42h5.987" stroke="#DC515E" stroke-width="1.7"/><path d="M238 65h34" stroke="#4A89DC" stroke-width="8"/><path d="M238 57.5h34" stroke="#FFF" stroke-width="7"/><path d="M238 50h34" stroke="#DD505E" stroke-width="8"/><path d="M170 42h34" stroke="#509F5D" stroke-width="8"/><path d="M170 34.5h34" stroke="#FFF" stroke-width="7"/><path d="M170 27h34m-34 38h34" stroke="#DD505E" stroke-width="8"/><path d="M170 57.5h34" stroke="#509F5D" stroke-width="7"/><path d="M170 50h34m-102-8h34" stroke="#FFCE54" stroke-width="8"/><path d="M102 34.5h34" stroke="#DC515E" stroke-width="7"/><path d="M102 27h34" stroke="#000" stroke-width="8"/><path d="M136 19h34" stroke="#DC515E" stroke-width="8"/><path d="M136 11.5h34" stroke="#509F5D" stroke-width="7"/><path d="M136 4h34" stroke="#FFF" stroke-width="8"/><g transform="translate(306 23)"><path d="M0 19.167h34" stroke="#DC515E" stroke-width="7.65"/><path d="M0 11.5h34" stroke="#FFF" stroke-width="7.65"/><path d="M0 3.833h34" stroke="#509F5D" stroke-width="7.65"/><g transform="translate(.85 5.963)" fill="#FFF"><ellipse cx=".85" cy=".852" rx=".85" ry=".852"/><ellipse cx="3.4" cy=".852" rx=".85" ry=".852"/><ellipse cx="5.95" cy=".852" rx=".85" ry=".852"/><ellipse cx="8.5" cy=".852" rx=".85" ry=".852"/><ellipse cx="11.05" cy=".852" rx=".85" ry=".852"/><ellipse cx="13.6" cy=".852" rx=".85" ry=".852"/><ellipse cx="16.15" cy=".852" rx=".85" ry=".852"/><ellipse cx="18.7" cy=".852" rx=".85" ry=".852"/><ellipse cx="21.25" cy=".852" rx=".85" ry=".852"/><ellipse cx="23.8" cy=".852" rx=".85" ry=".852"/><ellipse cx="26.35" cy=".852" rx=".85" ry=".852"/><ellipse cx="28.9" cy=".852" rx=".85" ry=".852"/><ellipse cx="31.45" cy=".852" rx=".85" ry=".852"/><ellipse cx=".85" cy="10.222" rx=".85" ry=".852"/><ellipse cx="3.4" cy="10.222" rx=".85" ry=".852"/><ellipse cx="5.95" cy="10.222" rx=".85" ry=".852"/><ellipse cx="8.5" cy="10.222" rx=".85" ry=".852"/><ellipse cx="11.05" cy="10.222" rx=".85" ry=".852"/><ellipse cx="13.6" cy="10.222" rx=".85" ry=".852"/><ellipse cx="16.15" cy="10.222" rx=".85" ry=".852"/><ellipse cx="18.7" cy="10.222" rx=".85" ry=".852"/><ellipse cx="21.25" cy="10.222" rx=".85" ry=".852"/><ellipse cx="23.8" cy="10.222" rx=".85" ry=".852"/><ellipse cx="26.35" cy="10.222" rx=".85" ry=".852"/><ellipse cx="28.9" cy="10.222" rx=".85" ry=".852"/><ellipse cx="31.45" cy="10.222" rx=".85" ry=".852"/></g><path d="M16.575 8.519A2.98 2.98 0 0 1 19.55 11.5a2.98 2.98 0 0 1-2.975 2.981A2.98 2.98 0 0 1 13.6 11.5a2.98 2.98 0 0 1 2.975-2.981zm0 0a2.128 2.128 0 0 0-2.125 2.13c0 1.175.952 2.129 2.125 2.129a2.128 2.128 0 0 0 2.125-2.13c0-1.175-.952-2.13-2.125-2.13z" fill="#DC515E"/><ellipse fill="#DC515E" cx="16.575" cy="10.648" rx=".425" ry="2.13"/></g><path d="M170 88.167h34" stroke="#DC515E" stroke-width="7.65"/><path d="M170 80.5h34" stroke="#425191" stroke-width="7.65"/><path d="M170 72.833h34" stroke="#FFFFFE" stroke-width="7.65"/><path d="M178.93 76.773a2.818 2.818 0 0 1-2.125-.958s-.749.958-2.128.958c-1.27 0-2.127-.796-2.127-.796v5.21c.038 3.431 4.25 4.85 4.25 4.85s4.25-1.419 4.25-4.85v-5.21s-.85.796-2.12.796" fill="#FFF"/><path d="M178.503 77.04c-1.102 0-1.698-.8-1.698-.8s-.599.8-1.703.8c-1.017 0-1.702-.663-1.702-.663v4.34c.03 2.86 3.4 4.042 3.4 4.042s3.4-1.181 3.4-4.041v-4.341s-.68.663-1.697.663" fill="#DD505E"/><path d="M204 19h34" stroke="#425091" stroke-width="8"/><path d="M204 11.5h34" stroke="#FFF" stroke-width="7"/><path d="M204 4h34" stroke="#DC515E" stroke-width="8"/><path d="M223.13 6.735c-1.38 0-2.125-1.198-2.125-1.198s-.749 1.198-2.128 1.198c-1.27 0-2.127-.995-2.127-.995v6.512c.038 4.29 4.25 6.063 4.25 6.063s4.25-1.773 4.25-6.063V5.74s-.85.995-2.12.995" fill="#FFF"/><path d="M222.703 7.774c-1.102 0-1.698-.96-1.698-.96s-.599.96-1.703.96c-1.017 0-1.702-.796-1.702-.796v5.21c.03 3.431 3.4 4.849 3.4 4.849s3.4-1.418 3.4-4.85V6.978s-.68.796-1.697.796" fill="#DD505E"/><path d="M204 88.167h34" stroke="#DC515E" stroke-width="7.65"/><path d="M204 80.5h34" stroke="#425191" stroke-width="7.65"/><path d="M204 72.833h34" stroke="#FFF" stroke-width="7.65"/><path d="M212.504 74.058c-1.103 0-1.7-.799-1.7-.799s-.599.799-1.703.799c-1.016 0-1.701-.664-1.701-.664v4.342c.03 2.86 3.4 4.042 3.4 4.042s3.4-1.182 3.4-4.042v-4.342s-.68.664-1.696.664" fill="#FFF"/><path d="M212.078 74.75c-.828 0-1.274-.639-1.274-.639s-.45.64-1.278.64c-.762 0-1.276-.531-1.276-.531v3.473c.023 2.288 2.55 3.233 2.55 3.233s2.55-.945 2.55-3.233V74.22s-.51.53-1.272.53" fill="#425191"/><path d="M238 42h34" stroke="#509F5D" stroke-width="8"/><path d="M238 34.5h34" stroke="#FFF" stroke-width="7"/><path d="M238 27h34" stroke="#DC9551" stroke-width="8"/><path d="M254.575 31.944a2.554 2.554 0 0 1 2.55 2.556 2.554 2.554 0 0 1-2.55 2.556 2.553 2.553 0 0 1-2.55-2.556c0-1.41 1.14-2.556 2.55-2.556" stroke="#425191" stroke-width=".85"/><path d="M102 88h34" stroke="#DC515E" stroke-width="8"/><path d="M102 80.5h34" stroke="#4A89DC" stroke-width="7"/><path d="M102 73h34m170-54h34" stroke="#FFF" stroke-width="8"/><path d="M306 11.5h34" stroke="#000" stroke-width="7"/><path d="M306 4h34" stroke="#4A89DC" stroke-width="8"/><path d="M0 11.5h34" stroke="#FFF" stroke-width="7.65"/><path d="M0 11.5h34" stroke="#DD505E" stroke-width="22.95"/><path d="M17 7.435c-.204-.036-.21-.1-.106-.246.043-.062.007-.1-.135-.057-.105.031-.224-.119-.277-.189-.049-.063-.044-.075.015-.075a.346.346 0 0 0 .196-.09c.03-.038.022-.083-.058-.069-.08.016-.318-.109-.409-.234-.044-.06-.05-.09.023-.113a.674.674 0 0 0 .196-.106c.052-.037.022-.083-.073-.098a.823.823 0 0 1-.394-.25c-.03-.037-.058-.082.03-.105a.993.993 0 0 0 .357-.257c.059-.083.066-.174-.102-.098-.168.075-.504.098-.701.052-.416-.203-1.022-.468-1.255-.082-.394-.023-.869-.046-.781.46a.172.172 0 0 0 .146-.105c.034-.074.152-.087.263-.046.096.036.175.09.104.178-.037.045-.179.067-.266.045a3.205 3.205 0 0 0-.346-.06c-.063-.008-.19-.09-.248-.208-.058-.118-.208-.257-.302-.174-.096.084.018.223.113.31.094.087.288.196.39.196.135 0 .267.034.336.05.033.266.372.387.657.38.284-.008.66.135 1.007.431.449.384.766 1.654.007 1.654-.475 0-.402-.492-.387-.771a.698.698 0 0 0-.452-.702c-.322-.121-.979-.356-1.16-.461-.074-.054-.15.134-.161.241-.008.076-.09.083-.321.008-.658-.211-1.256-.574-1.54-1.133-.285-.559-.822-.01-.556.46.322.567 1.395 1.028 2.073 1.118.316.043.313.433.015.476-.62.092-1.227.079-1.606-.43-.291-.392-.579-.04-.452.272.27.664 1.187.945 2.08.498.212-.105.439-.087.255.174-.459.658-1.072.76-1.839.272-.226-.143-.4-.12-.453-.03-.089.16-.13.303.132.498.576.431 1.245.4 1.78.114.213-.114.6-.204.257.265-.344.468-1.22.71-1.577.445-.358-.264-.803-.023-.518.385.284.408.876.303 1.145.152.27-.152.686-.355.862-.439.175-.083.257.059.058.295-.445.529-.904.974-1.525.763-.358-.12-.687-.136-.591.317.095.453.832.484 1.196.257.366-.226.694-.484.913-.703.219-.218.44-.21.197.159-.547.831-1.014 1.44-1.796 1.285-.722-.144-.543.305-.386.445.445.4 1.226.295 2.16-.891.073-.093.196-.066.131.106-.415 1.11-1.109 1.828-1.78 1.654-.35-.09-.69.11-.336.431.402.362 1.131.227 1.656-.378.526-.604.847-1.035.964-1.262.117-.226.292-.234.27.06-.022.295-.233.87-.606 1.059-.192.098-.364.317 0 .483.365.166.796-.506 1.146-1.489.041-.115.283-.144.277.076-.006.31-.153.567-.313.718-.16.151-.035.404.182.302.306-.143.5-.354.621-.672.065-.174.213-.234.13.037-.247.816-.802 1.21-1.532 1.587.11.114.209.238.307.34-.45.238-.92.396-1.292.556-.296-.205-.558-.318-.69-.51-.043-.261-.35-.375-.547-.261-.34-.136-.58-.103-.602.226.197-.034.361-.068.503.068.066.159.274.238.47.17.22.136.406.273.537.363a12.67 12.67 0 0 1-.94-.056c-.209-.216-.406-.216-.56-.069-.25-.057-.448.064-.514.29.19-.021.365-.09.49-.021.101.196.386.203.568.06.278-.007.818-.015.942-.015l-.511.317c-.431-.09-.664.083-.635.408-.102.166-.095.4.029.506a.858.858 0 0 1 .205-.407c.262.052.452-.039.533-.341.167-.113.386-.256.474-.317.088-.06.157-.13.358-.037.196.09.379.166.495.233.067.265.315.28.475.16a.69.69 0 0 1 .249.279c.094-.174.043-.408-.14-.469a.32.32 0 0 0-.466-.174c-.139-.06-.336-.158-.424-.196a33.996 33.996 0 0 0 1.263-.499c.241.19.51.37.708.318.029-.181.12-.33.241-.59.193-.41.434-.797.63-1.034.198-.238.398-.102.384.226-.033.793-.598 1.979-1.43 2.025-.285.015-.398.076-.24.295.145.203.597.23.85.037.25-.192.338-.181.287.076-.05.256-.336.354-.547.37-.306.023-.656.136-.373.408.285.271.753.12 1.095-.287.12-.142.214-.182.205.045-.015.393-.241.642-.474.695-.234.053-.468.117-.402.257.11.234.474.272.679.159.204-.114.423-.325.467-.454.044-.128.133-.055.11.121-.052.378-.307.37-.307.68 0 .31.248.612.54.952.292-.34.54-.642.54-.952 0-.31-.255-.302-.306-.68-.024-.176.065-.25.11-.12.043.128.262.34.466.453.205.113.57.075.68-.159.065-.14-.17-.204-.402-.257-.234-.053-.46-.302-.475-.695-.009-.227.086-.187.205-.045.342.408.81.558 1.095.287.284-.272-.066-.385-.373-.408-.211-.016-.496-.114-.547-.37-.051-.257.036-.268.288-.076.252.193.705.166.85-.037.157-.22.044-.28-.24-.295-.833-.046-1.398-1.232-1.431-2.025-.014-.328.186-.464.383-.226.197.237.438.623.632 1.035.12.258.211.408.24.589.198.053.468-.129.708-.318.255.114.979.393 1.263.499-.088.038-.284.136-.424.196a.32.32 0 0 0-.466.174c-.183.06-.234.295-.139.469a.69.69 0 0 1 .248-.28c.16.121.408.106.475-.159.116-.067.299-.143.495-.233.2-.092.27-.023.358.037.088.06.307.204.475.317.08.302.27.393.532.34a.858.858 0 0 1 .205.408c.124-.106.131-.34.029-.506.029-.325-.204-.498-.635-.408l-.51-.317c.123 0 .663.008.941.015.182.143.467.136.569-.06.124-.068.3 0 .49.022-.067-.227-.263-.348-.516-.29-.153-.148-.35-.148-.557.068-.22.022-.527.045-.942.056.13-.09.317-.227.536-.363.197.068.406-.011.471-.17.142-.136.306-.102.503-.068-.022-.329-.262-.362-.602-.226-.197-.114-.504 0-.547.26-.132.193-.394.306-.69.51-.372-.159-.843-.317-1.292-.555.098-.102.197-.226.307-.34-.73-.378-1.285-.77-1.533-1.587-.082-.27.066-.211.132-.037.12.318.314.529.62.672.217.102.343-.15.182-.302a1.035 1.035 0 0 1-.313-.718c-.006-.22.236-.19.277-.076.35.983.78 1.655 1.146 1.49.364-.167.192-.386 0-.484-.373-.19-.584-.764-.606-1.058-.022-.295.153-.287.27-.06.117.226.438.657.964 1.26.525.606 1.254.741 1.656.379.355-.32.014-.521-.335-.431-.672.174-1.366-.544-1.781-1.654-.065-.172.058-.199.13-.106.935 1.186 1.716 1.291 2.161.891.157-.14.336-.589-.386-.445-.782.155-1.249-.454-1.796-1.285-.244-.369-.022-.377.197-.159.22.22.547.477.913.703.364.227 1.101.196 1.197-.257.095-.453-.234-.438-.592-.317-.621.21-1.08-.234-1.525-.763-.199-.236-.116-.378.059-.295.175.084.59.287.86.439.27.15.862.256 1.147-.152.284-.408-.161-.649-.519-.385s-1.233.023-1.577-.445c-.342-.469.044-.379.256-.265.536.287 1.205.317 1.78-.114.263-.195.222-.339.133-.498-.051-.09-.227-.113-.453.03-.767.487-1.38.386-1.839-.272-.184-.261.043-.28.255-.174.893.447 1.81.166 2.08-.498.127-.312-.16-.664-.452-.272-.378.509-.985.522-1.606.43-.298-.043-.3-.433.015-.476.679-.09 1.751-.55 2.073-1.117.266-.471-.27-1.02-.555-.461-.285.559-.884.922-1.54 1.133-.232.075-.314.068-.322-.008-.01-.107-.087-.295-.16-.241-.182.105-.84.34-1.16.46a.7.7 0 0 0-.453.703c.015.28.088.77-.387.77-.759 0-.442-1.269.007-1.653.347-.296.723-.44 1.007-.432.285.008.624-.113.657-.38.07-.015.201-.049.336-.049.102 0 .296-.109.39-.196.095-.087.209-.226.113-.31-.094-.083-.244.056-.302.174-.059.117-.184.2-.248.208a3.205 3.205 0 0 0-.346.06c-.087.022-.23 0-.266-.045-.071-.089.008-.142.104-.178.111-.04.229-.028.263.046a.172.172 0 0 0 .146.105c.087-.506-.387-.483-.781-.46-.233-.386-.84-.121-1.255.082-.197.046-.533.023-.701-.052-.167-.076-.16.015-.102.098.059.083.27.234.358.257.087.023.058.068.029.105a.823.823 0 0 1-.394.25c-.095.015-.124.06-.073.098a.685.685 0 0 0 .196.106c.073.023.067.052.022.113-.09.125-.328.25-.408.234-.08-.014-.088.03-.058.068a.34.34 0 0 0 .197.09c.058 0 .063.013.014.076-.053.07-.171.22-.277.189-.142-.043-.178-.005-.134.057.103.146.098.21-.107.246" fill="#FFF"/><path d="M17.19 11.44c-.12-.062-.255-.083-.357-.038-.102.046-.124.152-.007.19.116.037.27.037.35.014.08-.023.117-.113.014-.166" fill="#FFF"/><path d="M16.81 11.44c.12-.062.255-.083.357-.038.102.046.124.152.007.19a.693.693 0 0 1-.35.014c-.08-.023-.117-.113-.014-.166" fill="#FFF"/><g transform="translate(170)"><path d="M0 11.5h34" stroke="#DC515E" stroke-width="22.95"/><path fill="#FFCE54" d="M6.42 5.114h3.37L7.2 6.834l.899 3.392-2.56-2.56-2.558 2.56.874-3.392-2.58-1.72h3.382l.882-3.41z"/><ellipse fill="#FFCE54" cx="9.35" cy="2.556" rx=".85" ry=".852"/><ellipse fill="#FFCE54" cx="11.05" cy="5.111" rx=".85" ry=".852"/><ellipse fill="#FFCE54" cx="11.05" cy="7.667" rx=".85" ry=".852"/><ellipse fill="#FFCE54" cx="9.35" cy="10.222" rx=".85" ry=".852"/></g><path d="M34 11.5h34" stroke="#425091" stroke-width="7"/><path d="M34 4h34" stroke="#DD505E" stroke-width="8"/><path d="M34 19h34" stroke="#FACA5A" stroke-width="8"/><path d="M238 88.933h34" stroke="#DC505E" stroke-width="5.95"/><path d="M238 80.5h34" stroke="#FACA5A" stroke-width="11.05"/><path d="M238 72h34" stroke="#DD505E" stroke-width="5.95"/><path d="M0 67.724h34" stroke="#4A89DC" stroke-width="2.55"/><path d="M0 57.488h34" stroke="#FFF" stroke-width="17.85"/><path d="M0 47.253h34" stroke="#4A89DC" stroke-width="2.55"/><path stroke="#4A89DC" stroke-width="1.7" d="M16.924 52.37l-5.099 8.797h10.196z"/><path stroke="#4A89DC" stroke-width="1.7" d="M16.999 63.103L11.9 54.307h10.196z"/><path d="M136 34.451h34" stroke="#FFF" stroke-width="22.95"/><path d="M136 44.695h34m-21.25-20.488H170m-21.25 5.123H170m-21.25 5.121H170m-34 5.122h34" stroke="#4A89DC" stroke-width="2.55"/><path d="M136 25.488h5.1m2.55 0h5.1M136 33.17h5.1m2.55 0h5.1" stroke="#4A89DC" stroke-width="5.1"/><path d="M136 64.5h34" stroke="#B42B39" stroke-width="9"/><path d="M136 57.5h34" stroke="#FFF" stroke-width="5"/><path d="M136 50.5h34" stroke="#B42B39" stroke-width="9"/><path d="M0 109.485h34" stroke="#FACA5A" stroke-width="11.05"/><path d="M0 97.97h34" stroke="#4A89DC" stroke-width="11.9"/><path d="M34 86.485h34" stroke="#DC505E" stroke-width="11.05"/><path d="M34 74.97h34" stroke="#FFF" stroke-width="11.9"/><path d="M272 17.485h34" stroke="#DC505E" stroke-width="11.05"/><path d="M272 5.97h34" stroke="#FFF" stroke-width="11.9"/><path fill="#434F91" d="M271.997.426l12.143 11.551-12.143 10.666V.426"/><g transform="translate(0 69)"><path d="M0 17.485h34" stroke="#DC505E" stroke-width="11.05"/><path d="M0 5.97h34" stroke="#434F91" stroke-width="11.9"/><path fill="#FFF" d="M-.003.426L12.14 11.977-.003 22.643V.426"/><ellipse fill="#FACA5A" cx="4.247" cy="11.941" rx="2.55" ry="2.559"/></g><path d="M272 40h34" stroke="#FFF" stroke-width="11"/><path d="M272 29h34" stroke="#DC505E" stroke-width="12"/><path d="M39.525 46v23" stroke="#509F5D" stroke-width="11.05"/><path d="M62.475 46v23" stroke="#DC505E" stroke-width="11.05"/><path d="M51 46v23" stroke="#FFF" stroke-width="11.9"/><path d="M73.525 92v23" stroke="#509F5D" stroke-width="11.05"/><path d="M85 92v23" stroke="#FFF" stroke-width="11.9"/><path d="M96.475 92v23" stroke="#DC9551" stroke-width="11.05"/><path d="M96.475 69v23" stroke="#DC505E" stroke-width="11.05"/><path d="M85 69v23" stroke="#FACA5A" stroke-width="11.9"/><path d="M73.525 69v23" stroke="#4A89DC" stroke-width="11.05"/><path d="M68 11.5h34" stroke="#509F5D" stroke-width="23"/><path d="M84.5 5.5a6 6 0 1 1 0 12 6 6 0 0 1 0-12" fill="#DC505E"/><path d="M102 57.5h34" stroke="#FFF" stroke-width="22.95"/><path d="M124.929 55.816c.1.607-.52-1.26-2.285-1.576-1.764-.316-3.472.744-3.815 2.369-.307 1.455-1.837 2.406-3.417 2.123-1.58-.283-2.612-1.692-2.305-3.147.632-2.994 3.78-4.95 7.034-4.368 2.56.458 4.42 2.353 4.788 4.599z" fill="#ED5565"/><path d="M113.071 58.332c-.1-.607.52 1.261 2.285 1.576 1.764.316 3.472-.744 3.815-2.369.307-1.455 1.837-2.405 3.417-2.123 1.58.283 2.612 1.692 2.305 3.147-.632 2.994-3.78 4.95-7.034 4.368-2.56-.458-4.42-2.352-4.788-4.599z" fill="#4758A9"/><path d="M126.25 49.494l.856-.466 2.774 5.168-.855.466-2.775-5.168zm1.065 6.1l-2.775-5.169.855-.466 2.775 5.169-.855.466zM109.5 59.99l.864-.46 2.805 5.102-.864.46-2.805-5.102zm-.02-5.2l2.775-5 .855.451-2.774 5-.855-.45zm-1.71-.901l2.775-5 .855.451-2.774 5-.855-.451zm3.67 11.663l-.864.46-2.805-5.103.864-.46 2.805 5.103zm16.954-5.906l-2.805 5.273-.864-.475 2.805-5.273.864.475zm1.73.95l-2.806 5.274-.864-.475 2.805-5.274.864.475z" fill="#434A54"/><path d="M68 57.5h34" stroke="#FFF" stroke-width="22.95"/><path d="M84.5 51.5a6 6 0 1 1 0 12 6 6 0 0 1 0-12" fill="#DC505E"/><path d="M50 92h18v2H50zm0 4h18v2H50zm0 4h18.043v2H50zm0 4h18.043v2H50zm-16 4h34v2H34zm0 4h34v2H34z" fill="#CC4B57"/><path d="M50 94h18v2H50zm0 4h18v2H50zm0 4h18.043v2H50zm-16 4h34.082v2H34zm0 4h34v2H34zm0 4h34v1H34z" fill="#FFF"/><path fill="#3C497D" d="M34 92h16v14H34z"/><g transform="translate(35 93)" fill="#FFF"><circle cx="1" cy="1" r="1"/><circle cx="5" cy="1" r="1"/><circle cx="9" cy="1" r="1"/><circle cx="13" cy="1" r="1"/><circle cx="3" cy="3" r="1"/><circle cx="7" cy="3" r="1"/><circle cx="11" cy="3" r="1"/><circle cx="1" cy="5" r="1"/><circle cx="5" cy="5" r="1"/><circle cx="9" cy="5" r="1"/><circle cx="13" cy="5" r="1"/><circle cx="3" cy="7" r="1"/><circle cx="7" cy="7" r="1"/><circle cx="11" cy="7" r="1"/><circle cx="1" cy="9" r="1"/><circle cx="5" cy="9" r="1"/><circle cx="9" cy="9" r="1"/><circle cx="13" cy="9" r="1"/><circle cx="3" cy="11" r="1"/><circle cx="7" cy="11" r="1"/><circle cx="11" cy="11" r="1"/></g><path d="M217.6 46h20.422v1.77H217.6zm0 3.538h20.422v1.77H217.6zm-.01 3.539h20.44v1.77h-20.44zm0 3.538h20.44v1.77h-20.44zM204 60.154h34v1.77h-34zm0 3.538h34v1.77h-34zm0 3.538h34V69h-34z" fill="#CC4B57"/><path d="M220.981 47.77h17.041v1.768h-17.04zm0 3.538h17.041v1.769h-17.04zm0 3.538h17.041v1.77h-17.04zM204 58.385h34.063v1.769H204zm0 3.538h34v1.77h-34zm0 3.539h34v1.769h-34z" fill="#FFF"/><path fill="#3C497D" d="M204 46h13.6v14.154H204z"/><path d="M212.617 49.63a4.13 4.13 0 0 0-2.664-.976c-2.348 0-4.25 1.98-4.25 4.423s1.902 4.423 4.25 4.423a4.13 4.13 0 0 0 2.664-.977c-.311.06-.635.092-.967.092-2.348 0-4.25-1.583-4.25-3.538 0-1.955 1.902-3.539 4.25-3.539.332 0 .656.032.967.092z" fill="#FFCE54"/><path d="M213.35 50.423c1.408 0 2.55 1.189 2.55 2.654 0 1.465-1.142 2.654-2.55 2.654-1.41 0-2.55-1.19-2.55-2.654 0-1.465 1.14-2.654 2.55-2.654" fill="#FFCE54"/><path d="M136 80.5h34" stroke="#509F5D" stroke-width="22.95"/><path d="M144.009 84.498h18.301s-.321.777-.717.777h-16.867c-.396 0-.717-.777-.717-.777z" fill="#FFF"/><path d="M158.721 83.33h.719v3.113h-.719V83.33zm3.309-6.89c-.017.032.028.282.041.391.212 1.119.262 2.273.23 3.819-.005.264-.113.694-.205.853-.344.567-.84.605-1.262.659-.244-.008-.244-.227.06-.42.094-.082.386-.188.523-.3.137-.112.283-.343.414-.529.06-.174.064-.25.084-.39-.034-1.464-.2-2.707-.424-4.36-.037-.264-.005-.562.088-.728.088-.205.106-.129.16-.014.15.257.577.858.505.938-.049.089-.186.004-.214.08zm-.855.089c-.036-.159-.266-.448-.242-.534-.047-.178.098-.257.2-.225.169.09.267.604.249.75-.034.267-.123.556-.187.518-.07-.033.014-.396-.02-.51zm-.429.014c-.016.034.036.38.053.49.06.277.05.627.09.86.041.235-.012.41.074.63.018.038.025.084.039.125.217.32.53.768.763 1.2.081.108.123.893-.004.967-.203-.4-.42-.778-.643-1.145l.001.59c.004.264-.457.821-.442.681.02-.7-.016-1.387-.08-2.077-.143-.214-.29-.414-.435-.62.021.828.076 2.183-.025 2.48-.093.249-.196.374-.354.471-.231.173-.466.138-.662-.051a.836.836 0 0 1-.3-.284c-.084-.098-.26-.136-.328.086-.1.121-.102.732-.313.97-.09.119-.253.225-.462.056-.23-.128-.325-.294-.443-.553-.081-.157-.24-.89.12-1.331.05-.22-.187.636.215 1.237.16.17.302.095.352.007.197-.394.328-.965.617-1.27.104-.106.201-.148.348 0 0 0 .287.493.36.525.098.103.246.01.246.01.096-.046.2-.364.208-.727-.06-.857-.077-1.56-.138-2.416-.285-.389-.57-.77-.85-1.145-.075-.103-.164-.28-.163-.372-.013-.169 0-.4.013-.6.033-.227.093-.093.191-.023.197.166.264.253.493.529.272.371-.337-.032.08.45.013.013.033.04.06.073l-.02-.125c-.015-.235-.053-.474-.068-.709a.406.406 0 0 1 .122-.294c.062-.101.113-.054.152-.012l.49.99c.033.092-.015.19-.068.18-.032-.016-.04-.019-.091-.068-.05-.006-.039.009-.034.06.02.128.047.661.047.673l.008.044c.178.253.365.52.518.743-.08-.6-.174-1.207-.284-1.84-.045-.261-.089-.536.029-.657.126-.183.229-.222.286-.109.157.252.467 1.132.399 1.214-.047.09-.142.01-.167.087zm-2.315 2.717c-.047.037-.094-.288 0-.38.024-.026.976-.768.976-.768.097-.036.077.383.032.38.018.084-.94.797-1.007.768zm.676-.143c-.047-.18.09-.275.193-.243.168.092.235.63.216.776.006.284-.161.513-.226.475-.069-.034.007-.353-.027-.466-.037-.158-.18-.456-.156-.542zm-.415-1.912c.007-.08-.031-.13-.031-.219.044-.241.296-.278.391-.124.07.093.095.293.105.428 0 .068-.102-.012-.16.004-.058.017-.072.09-.077.156-.01.176-.029.457-.032.67-.19-.005-.588-.406-.704-.642a.47.47 0 0 1 .022-.343c.07-.05.18-.106.26-.052 0 0 .084.129.067.145.104.055.148.023.159-.023zm-1.084 3.84c.05-1.643-.26-3.08-.562-4.806-.045-.261-.004-.606.113-1.026.127-.184.103-.084.16.03.094.262.393.703.514 1.005.038.24-.31-.117-.24.295.058.22.345 2.42.356 2.708.012.289.077.588.038 1.079-.07.357-.236.716-.38.715zm-.619-.689c-.005.264-.166.604-.258.762-.343.683-.714.942-1.134.995-.252 0-.446-.293-.39-.362.519-.214.996-.68 1.326-1.058.09-.086.11-.3.1-.447-.132-1.523-.194-2.855-.395-4.378-.007-.271.056-.56.148-.728.088-.204.107-.128.16-.013.15.257.412.923.341 1.004-.05.088-.142.052-.17.088a.71.71 0 0 0-.01.269c.211 1.118.314 2.321.282 3.868zm-1.414-3.173c-.154-.07-.15-.321-.14-.331-.007-.054 0-.194.113-.195.02.006.039.014.05.03a.306.306 0 0 1 .013.09c0 .026.016.032.03.047.021.016.015.012.042.012.024-.005.036-.018.04-.053 0-.03.009-.057.016-.084.015-.026.015-.034.044-.036.023 0 .031.003.044.012.013.02.035.055.035.087-.003.1.063.112.08.092.03-.018.007-.077.015-.113.026-.11.14-.137.183-.03.002.03.01.138.01.17.016.363-.37.41-.575.302zm.159-.937c-.077-.032.051-.245-.022-.47-.04-.147-.292-.414-.265-.494-.052-.165.106-.237.22-.207.184.084.314.493.271.692-.036.247-.134.514-.204.479zm-.556.288c.02.094.05.377.08.727.188.305.347.571.393.665.125.254.519.915.803 1.585.075.112.103.909-.026.976a28.69 28.69 0 0 0-1.096-2.152c.012.214.022.417.026.583.005.31.076 1.246.025 1.771-.081.38-.312.64-.454.634.047-.882.031-1.786-.02-2.623a17.656 17.656 0 0 0-.134-1.32 36.012 36.012 0 0 0-.973-1.52c-.072-.106-.219-.29-.242-.401a1.401 1.401 0 0 1-.021-.472c.042-.225.275-.09.37-.015l.432.403c.061.08.099.138.133.193a.886.886 0 0 1 .062-.366c.132-.192.13-.165.214-.032.265.407.49.709.564 1.154.031.26-.195-.236-.136.21zm-.624-.437a2.882 2.882 0 0 0-.05-.262c-.087.009-.215-.035-.06.167.021.027.068.095.124.178-.006-.029-.008-.055-.014-.083zm-1.025-.468c-.02.114-.143.078-.2.067-.115.017.008.298.008.311.071.187.072.445.165.63.09.154.274.086.368.07.075-.05.08-.065.154-.115.057-.035.145-.05.136.122 0 0-.145.461-.339.563-.054.017-.076.065-.168-.01-.054-.115.024-.178.037-.242 0-.035-.132-.086-.21.028-.05.077-.077.148-.186.352-.08.154-.43.21-.594.138-.194-.108-.181-.265-.272-.355-.094-.066-.181-.062-.247.014l-.298.325a.517.517 0 0 1-.722-.014c-.17-.221-.226-.382-.218-1.111-.034-.079-.085-.062-.152.09-.099.55-.252 1.05-.491.94-.333.102-.812-.943-.508-1.897.19-.208.202 1.058.36 1.22.064.123.156.21.243-.095.094-.42.248-.948.56-1.26.065-.062.218-.135.31.067.062.13.044.744.035 1.119.046.235.124.273.224.347.108.057.248.097.377-.056.093-.117.108-.158.178-.275.046-.413.005-.785-.096-1.013-.125-.36.046-.536.086-.65.148-.295.192-.129.253.043.168.284.102.892.155 1.325.07.573.203.611.286.63.195.026.308-.169.308-.169.063-.413-.13-.707-.235-.935a.567.567 0 0 1-.099-.461c.02-.113.005-.232.112-.34.151-.138.307-.121.42.014.13.159.32.472.26.583zm-2.102-.017c-.009 0 .039-.498.078-.594.092-.25.231-.257.268-.031-.008.148-.008.296-.126.646-.08.19-.252.127-.22-.02zm-.902-.242a.274.274 0 0 1-.112.182c-.117.067-.176.075-.233-.017-.081-.085-.058-.085-.052-.219.005-.237.187-.444.279-.511.13-.085.131-.01.128.094-.105.153-.218.216-.18.374.023.17.198-.055.17.097zm-1.06.335c.04.038.077.067.117.105 0 0-.783.982-.948 1.048-.017.03-.556.032-.578 0-.102-.022.776-.668 1.096-1.043.07-.064-.035-.18-.14-.234-.106-.143-.075-.371.062-.514a.435.435 0 0 1 .421-.005c.102.124.165.395-.03.52-.04.04-.043.082 0 .123zm-.106-.28c-.03-.073-.095-.12-.144-.108-.05.013-.066.083-.037.155.031.074.096.122.145.11.05-.013.066-.083.036-.156zm-.083 1.777c.212-.207.207-.097.207-.097s-.107.39-.284.366c-.022 0-.19.061-.295-.104-.113-.187-.043-.508.138-.616.103-.066.171-.024.14.073a.532.532 0 0 0-.028.305c.023.056.034.092.122.073zm-1.064 1.21c.02.142.215.124.322.028.16-.492.423-.45.487-.134.006.103.151.1.166.02.01-.083.023-.165.035-.248.01-.076.136-.114.304-.171a6.792 6.792 0 0 1-.087.867c-.075.286-.438.362-.644.2-.06-.07-.148-.035-.183.02-.08.107-.448.377-.713.066-.125-.003.142.613-.087 1.449-.431 1.508-3.09 2.293-3.2.466 0-.242-.01-.311.026-.562.035-.451.251-.626.304-.172.009.23.035.61.122.782.35.728 2.415.568 2.479-1.744-.02-.172-.137-.067-.166.038-.307 2.554-3.058 2.23-2.235-.096.279-.21.156.696.27.935.182.38.521.333.948.123.704-.41.73-.943.696-.99-.053-.039-.174.123-.322.19-.18.05-.386.073-.557-.152-.055-.194-.04-.435 0-.658.035-.28.313-.569.557-.572.336-.012.386.283.583.43.115.015.206-.14.182-.258-.15-1.004-.25-1.77-.4-2.773-.038-.236.081-.356.209-.4.075-.02.125-.067.182.01.12.05.334.758.436 1.104-.093.128-.186.045-.288.048.078.655.157 1.28.235 1.934.244-.155.365-.11.339.22zm-1.4.342c-.055-.155-.213-.097-.243-.043-.024.047-.077.107-.06.169.038.056.068.067.13.07.055 0 .13.014.147-.02a.19.19 0 0 0 .027-.176zm.153-2.622c-.016.053.072.193.055.247.118.296.148.593.17.89-.006.31-.228.508-.599.62-.244.06-.314-.09-.47-.21-.1-.06-.241-.052-.244.07-.078.123.055.656.038 1.293-.018 1.085-.382.97-.382.97l-.074-1.724c-.061-.168-.167-.174-.324-.16-.151-.068-.346-.163-.34-.488v-.996c-.007-.133-.082-.133-.123-.028-.218.213.114 1.389-.487 1.326-.496-.115-.444-1.24-.4-1.88.15-.192.206.626.296.959.105.457.253.282.286.035.025-.22.083-.467.083-.467.068-.48.31-.768.404-.762.118-.023.176.012.224.15.061.14.08.689.01 1.037-.013.269.286.575.272.033-.048-.403-.08-.75-.182-1.145a4.716 4.716 0 0 1-.014-.714c.047-.123.18-.188.27-.054.148.133.177.659.203.904 0 .2.017.64.104.935.061.143.144.172.185.048.05 0-.054-.138-.123-.357-.093-.238-.155-.77-.025-1.018.049-.086.148-.086.222 0 .074.144.165.211.196.422.043.152.104.214.025.764 0 .054.296.296.296.296.09.105.197.133.305.066.027-.173-.034-.364-.076-.48-.203-.294-.335-.656-.303-.96.07-.264.263-.29.394-.163.159.094.256.312.32.54-.024.105-.125.115-.192 0zm-.93-.587c-.154-.07-.149-.321-.14-.332-.007-.052 0-.193.113-.193.021.005.039.013.05.03a.338.338 0 0 1 .014.09c0 .026.016.032.029.047.022.015.016.012.042.012.024-.005.037-.018.04-.054 0-.03.01-.057.016-.083.015-.027.015-.035.043-.036.024 0 .033.003.046.012.012.02.034.054.034.086-.003.1.063.112.08.093.03-.019.007-.078.016-.113.025-.111.14-.138.182-.03.003.029.01.138.01.17.017.363-.37.408-.576.3zm-1.614.374c-.065-.026-.003-.303-.034-.389-.035-.12-.235-.34-.213-.406-.045-.136.092-.196.19-.171.236.077.25.459.233.57-.032.204-.116.424-.176.396zm.668 2.49c.321.01.24.137.326.277-.53.283-1.042.547-1.563.822.02-.389.743-1.09 1.237-1.098zm-1.116 1.99c-.03.223-.057.504-.037.81.012.162.065.36.195.071.061-.09.11-.073.172.033.043.15-.038.558-.222.646-.105.034-.246-.013-.332-.12-.162-.229-.136-.995.158-1.508.065-.092.098-.162.066.068zm4.491-.832c-.041-.16.093-.189.192-.165.16.067.255.443.237.551-.032.196-.117.408-.179.38-.066-.024.014-.29-.018-.374-.014-.201-.237-.305-.232-.392zm4.162-1.7c.003.03.01.139.01.171.12.347-.37.409-.575.302-.154-.07-.149-.322-.14-.332-.006-.053.001-.194.113-.194.02.006.039.014.05.03a.306.306 0 0 1 .013.09c0 .026.016.032.03.047.021.015.015.012.042.012.024-.005.036-.018.04-.054 0-.03.009-.057.016-.083.015-.027.015-.035.044-.036.023 0 .031.003.044.012a.17.17 0 0 1 .035.086c-.003.1.063.112.08.093.03-.018.008-.078.015-.113.027-.111.14-.138.183-.03zm-3.293 1.909c.014.002-.037.301-.032.428.002.104-.007.145.013.118.041-.028.767-.653.823-.845.07-.11.021-.389.021-.396-.136-.385-.327-.418-.397-.608-.064-.254-.035-.545.097-.625.118-.117.257-.103.385.025.147.144.278.426.315.635-.026.083-.192-.055-.25-.014.103.117.15.25.187.414.095.44.066.61-.029.893-.323.743-.734.965-1.095 1.24-.01.003-.016.188.12.289.046.053.234.08.456.003.427-.255.87-.726 1.09-1.25.064-.396-.024-.816-.119-1.182-.14-.359-.308-.87-.308-.878-.005-.223.01-.3.101-.412.138-.108.073-.183.28.044a4.12 4.12 0 0 1 .451 1.671c-.01.138.078.225.118.195.024-.323.74-.772 1.396-.837.1-.024.052-.235.068-.343-.04-.398.205-.762.546-.791.466.076.62.348.629.763-.05.798-.809.934-1.236.998-.065.026-.092.06 0 .099l1.786.008.091.058c.011.047-.025.008-.096.136-.07.126-.174.42-.18.615-.532.188-1.082.27-1.641.345-.195.107-.291.25-.251.412.065.179.495.358.495.366.082.056.179.188-.022.456-.872-.042-1.547-.448-1.78-1.021-.07-.06-.147 0-.196.077-.34.48-.675.913-1.254 1.142a.807.807 0 0 1-.867-.305c-.112-.142-.108-.298-.15-.332-.186.091-1.794.84-1.59.49.39-.458 1.069-.796 1.667-1.248.044-.152.122-.665.358-.833zm4.14-1.335c.083.053.171.056.198.007v-.001c.027-.05-.019-.132-.101-.185-.084-.053-.172-.055-.199-.006v.001c-.026.049.02.131.102.184zm-1.394 2.444c.1.058.268.203.198-.22 0-.303.184-.36.376-.43.194-.076.09-.254-.117-.268-.254-.03-.548-.033-.746-.093-.133 0-.215.097-.208.212.048.483.38.706.497.799zm1.831.048c.095-.052.186.04.181.034.016.103-.06.2-.036.338.021.055.036.117.129.094.151-.13.292-.14.443-.148.115.008.12.223.047.224-.28.067-.405.149-.604.232-.094.06-.176-.016-.176-.025 0-.008-.055-.058-.016-.196.007-.11-.034-.17-.117-.157-.063.037-.118.062-.15-.017-.013-.059-.017-.087.024-.121.066-.106.27-.258.275-.258zm6.389.751c.07-.094.043-.146.002-.204-.07-.048-.138-.041-.142-.164.01-.082.032-.112.093-.126.113-.01.154-.02.256 0 .1.037.124.082.096.15a.628.628 0 0 1-.075.157c-.043.09.049.104.077.104.06.008.147-.02.186.029.005 0 .027.103-.04.158 0 .006-.411.299-.59.244-.096-.028-.076-.118-.044-.177.067-.067.114-.104.18-.17z" fill="#FFF"/><path d="M102 11.5h34" stroke="#509F5D" stroke-width="22.95"/><path d="M104.898 11.514L118.636.889l13.739 10.625-13.739 10.624-13.738-10.624z" fill="#F6D660"/><path d="M118.636 4.191c3.9 0 7.06 3.167 7.06 7.074s-3.16 7.075-7.06 7.075c-3.899 0-7.059-3.168-7.059-7.075s3.16-7.074 7.06-7.074z" fill="#4758A9"/><path d="M124.752 14.566c.2-.42.36-.861.473-1.32a9.52 9.52 0 0 0-8.766-5.753c-1.62 0-3.145.401-4.48 1.108-.162.343-.297.7-.403 1.07a9.557 9.557 0 0 1 4.337-1.033 9.52 9.52 0 0 1 8.839 5.928z" fill="#F5F7FA"/><path d="M306 80.5h34" stroke="#DC515E" stroke-width="22.95"/><path d="M328.794 79.61l-1.034.89c-.269.233-.405.702-.303 1.044l.338 1.135c.103.342-.065.47-.372.281l-1.114-.681c-.307-.188-.797-.175-1.089.028l-1.108.77c-.293.204-.463.088-.38-.257l.308-1.287c.083-.345-.074-.818-.346-1.052l-.963-.82c-.273-.234-.204-.431.155-.44l1.339-.029c.359-.007.733-.293.834-.633l.411-1.404c.1-.341.282-.345.406-.01l.513 1.39c.124.336.518.616.877.622l1.367.02c.358.007.43.201.161.433zm-3.64-4.308a.866.866 0 0 1-.026-.01h-.001a5.845 5.845 0 0 0-.908-.361c-3.043-.923-6.219.794-7.092 3.83a5.7 5.7 0 0 0-.22 1.76 5.78 5.78 0 0 0 .29 1.757c.99 3.028 4.232 4.717 7.239 3.768a5.65 5.65 0 0 0 .894-.37v.002a.198.198 0 0 1 .2.337 6.983 6.983 0 0 1-2.471 1.376c-3.774 1.191-7.845-.928-9.09-4.732a7.203 7.203 0 0 1-.083-4.252c1.096-3.813 5.083-5.968 8.904-4.81a7.26 7.26 0 0 1 2.525 1.355c.07.047.104.135.08.219a.192.192 0 0 1-.241.131z" fill="#FFF"/><path d="M311.542 46v23" stroke="#FFF" stroke-width="11.05"/><path d="M328.148 46v23" stroke="#509F5D" stroke-width="23.8"/><path d="M334.44 60.757a6.309 6.309 0 0 1-1.638 1.928c-2.788 2.192-6.856 1.746-9.084-.996a6.354 6.354 0 0 1-.966-1.639 6.309 6.309 0 0 1-.43-1.846c-.271-3.5 2.394-6.556 5.953-6.824a6.504 6.504 0 0 1 2.536.311c.072.016.13.078.135.155a.173.173 0 0 1-.186.185v.001a5.233 5.233 0 0 0-.873-.008c-2.834.213-4.957 2.647-4.74 5.434a4.99 4.99 0 0 0 .363 1.523c.185.48.447.937.79 1.36 1.774 2.182 5.014 2.538 7.234.792.232-.182.443-.38.634-.591a.177.177 0 0 1 .265.01.17.17 0 0 1 .008.205zm-1.142-3.77c-.242.206-.368.623-.277.925l.296 1.004c.09.302-.061.415-.334.25l-.992-.597c-.273-.164-.71-.15-.973.03l-.994.689c-.262.181-.414.08-.338-.227l.282-1.14c.076-.306-.06-.724-.304-.93l-.855-.722c-.243-.204-.18-.38.14-.388l1.197-.034c.32-.009.657-.263.748-.565l.374-1.246c.092-.302.255-.306.363-.01l.452 1.229c.108.296.46.541.78.544l1.22.012c.321.003.385.175.143.381l-.928.794z" fill="#FFF"/><use mask="url(#b)" xlink:href="#a" transform="translate(0 115)" stroke="#979797" stroke-width="3.24" fill="#FFF"/><path d="M102 103.5h34" stroke="#425091" stroke-width="23"/><g transform="translate(102 92)"><mask id="d" fill="#fff"><use xlink:href="#c"/></mask><path d="M17.077 11.81L-.712.017l17.79 11.793L34.865.017 17.077 11.81zm0 0L-.599 23.528 17.077 11.81l17.676 11.718L17.077 11.81z" stroke="#FFF" stroke-width="4.6" mask="url(#d)"/></g><g transform="translate(102 92)"><mask id="f" fill="#fff"><use xlink:href="#e"/></mask><path d="M17.077 11.81L-.712.017l17.79 11.793L34.865.017 17.077 11.81zm0 0L-.599 23.528 17.077 11.81l17.676 11.718L17.077 11.81z" stroke="#DC515E" stroke-width="1.533" mask="url(#f)"/></g><path d="M119 92v23m-17-11.5h34" stroke="#FFF" stroke-width="7.667"/><path d="M119 92v23m-17-11.5h34" stroke="#DC515E" stroke-width="4.6"/><path d="M306 103.5h34" stroke="#DC505E" stroke-width="23"/><path d="M306 103.5h34" stroke="#FFF" stroke-width="16.867"/><path d="M306 103.5h34" stroke="#425091" stroke-width="7.667"/><path d="M141.738 92v23" stroke="#509F5D" stroke-width="11.404"/><path d="M158.631 92v23" stroke="#DC515E" stroke-width="22.808"/><g transform="translate(142 98)"><ellipse stroke="#FFCE54" stroke-width="1.629" fill="#DC515E" cx="6.484" cy="6" rx="5.578" ry="5.6"/><path d="M6.482 3.594s-.095.893-.627.893c-.488 0-.963-.893-.963-.893V6.23c.015 1.794 1.59 2.591 1.59 2.591s1.601-.797 1.601-2.59V3.593s-.468.893-.957.893c-.53 0-.644-.893-.644-.893z" fill="#FFF"/></g><path fill="#DC515E" fill-rule="nonzero" d="M170 92v23h9V92z"/><path fill="#FFF" fill-rule="nonzero" d="M179 92v23h16V92z"/><path fill="#DC515E" fill-rule="nonzero" d="M195 92v23h9V92z"/><path fill="#DC515E" d="M192.822 101.32l1.602-.32-.801 1.6.801.8-3.685 1.12.48 2.08h-3.686l.48 3.2h-1.6l.479-3.2h-3.687l.481-2.08L180 103.4l.801-.8L180 101l1.603.32v-1.12l3.205 1.596.801-1.596-.8-3.2 1.605 1.6.798-1.6.801 1.6 1.536-1.6-.734 3.2.734 1.596 3.273-1.596z"/><path fill="#FFF" fill-rule="nonzero" d="M204 115.01h34v-7.67h-34z"/><path fill="#425191" fill-rule="nonzero" d="M204 107.34h34v-7.67h-34z"/><path fill="#DC515E" fill-rule="nonzero" d="M204 99.67h34V92h-34z"/><g transform="translate(207 96.5)"><path d="M5.066.779s-.437 1.36-2.038 1.36C1.554 2.138.238.981.238.981v6.396c.045 4.057 4.828 6.692 4.828 6.692s4.912-2.635 4.912-6.692V.78S8.671 2.14 7.197 2.14C5.596 2.14 5.066.78 5.066.78z" fill="#DC515E"/><ellipse fill="#FACA5A" cx="5.095" cy="3.413" rx="3.238" ry="3.029"/><ellipse fill="#FACA5A" cx="5.095" cy="8.714" rx="3.238" ry="3.029"/><path d="M5.087 3.426s-.193 1.36-1.273 1.36c-.993 0-1.957-1.36-1.957-1.36v4.02c.03 2.733 3.23 3.948 3.23 3.948s3.254-1.215 3.254-3.948v-4.02s-.952 1.36-1.945 1.36c-1.077 0-1.309-1.36-1.309-1.36z" fill="#FFF"/></g><g fill-rule="nonzero"><path fill="#000" d="M237.923 92v23h11.404V92z"/><path fill="#DD505E" d="M260.673 92v23h11.404V92z"/><path fill="#FACA5A" d="M249.298 92v23h11.404V92z"/></g><path fill="#425091" fill-rule="nonzero" d="M272 114.897h34v-23h-34z"/><g transform="translate(272 92)"><mask id="h" fill="#fff"><use xlink:href="#g"/></mask><path d="M7.36 5.67L.35.378 7.36 5.67 14.371.377 7.361 5.67zm0 0l6.967 5.26L7.36 5.67.394 10.93 7.36 5.67z" stroke="#FFF" stroke-width="3.258" mask="url(#h)"/></g><path d="M279.286 92v11.308M272 97.654h14.571" stroke="#FFF" stroke-width="4.888"/><g transform="translate(272 92)"><mask id="j" fill="#fff"><use xlink:href="#i"/></mask><path d="M.35.377L14.326 10.93M14.371.377L.394 10.93" stroke="#DC515E" stroke-width="1.629" mask="url(#j)"/></g><path d="M279.286 92v11.308M272 97.654h14.571" stroke="#DC515E" stroke-width="1.629"/><path fill="#FFF" d="M293.048 97.654l-.952.499.182-1.057-.77-.749 1.064-.154.476-.962.475.962 1.064.154-.77.749.182 1.057zm5.666 2.826l-1.427.75.272-1.586-1.154-1.124 1.596-.23.713-1.444.714 1.443 1.596.231-1.155 1.124.273 1.586zm-.809 5.25l-.952.5.182-1.057-.77-.75 1.064-.153.476-.962.476.962 1.064.154-.77.749.181 1.057zm-7.286-2.018l-1.427.748.272-1.586-1.155-1.123 1.596-.231.714-1.443.714 1.443 1.596.231-1.155 1.123.273 1.586zm-12.143 7.673l-1.903.998.363-2.115-1.54-1.497 2.129-.309.951-1.924.952 1.924 2.128.309-1.54 1.497.363 2.115z"/></g></svg>